<?xml version="1.0" encoding="UTF-8"?>
<svg id="Camada_1" data-name="Camada 1" xmlns="http://www.w3.org/2000/svg" viewBox="0 0 267.85 109.97">
  <defs>
    <style>
      .cls-1 {
        fill: #5e725a;
        opacity: .4;
      }

      .cls-2 {
        fill: #6d8469;
      }
    </style>
  </defs>
  <ellipse class="cls-1" cx="135.13" cy="77.43" rx="132.72" ry="32.53" transform="translate(-.34 .59) rotate(-.25)"/>
  <g>
    <path class="cls-2" d="M2.96,70.01C-.59,47.54-3.24,16.68,21.36,4.86c23.1-11.09,38.11,10.08,51.5,25.52,2.62-5.72,5.29-11.53,9.37-16.32,14.99-17.61,40.79-13.73,55.44,1.98,6.04,6.47,10.54,14.2,14.99,21.85,1.57,2.7,3.14,5.4,4.36,8.28,4.68-6.99,6.69-15.12,13.57-20.27,6.64-4.98,14.95-7.95,23.16-8.85,13.16-1.45,27.97,3.29,38.33,11.42,10.99,8.63,19.05,35.37,14.33,49.26"/>
    <path d="M2.96,70.01C-1.06,48.73-4.21,20.28,16.19,6.13c24.09-16.99,44.01,5.16,58.3,22.85,0,0-3.59.51-3.59.51C78.06,8.9,97.12-5.2,119.18,1.83c20.5,5.95,30.78,25.87,39.83,43.5,0,0-3.79-.36-3.79-.36,3.2-4.67,5.24-10.45,9.11-15.64,17.01-19.61,49.02-17.37,68-2.08,12.95,12.43,18.5,33.26,14.07,50.48,3.48-16.82-2.66-37.23-15.45-48.68-18.04-13.66-47.85-15.25-63.29,2.78-3.33,4.48-5.34,10.24-8.84,15.55-.66.99-1.99,1.27-2.99.61-2.69-4.17-4.85-9.1-7.78-13.55C131.44.7,89.94-9.01,74.82,31.29c-.6,1.42-2.62,1.69-3.59.52C58.09,15.46,39.83-6.66,17.8,8.56-1.9,21.62.43,49.19,2.96,70.01h0Z"/>
  </g>
</svg>