<?xml version="1.0" encoding="UTF-8"?>
<svg id="Camada_1" data-name="Camada 1" xmlns="http://www.w3.org/2000/svg" viewBox="0 0 1092.59 720.57">
  <defs>
    <style>
      .cls-1 {
        fill: #87bd5b;
      }

      .cls-2 {
        fill: #172318;
        opacity: .4;
      }
    </style>
  </defs>
  <g>
    <path d="M622.59,485.75s-43.61-2.42-55.72-6.06c0,0-84.79,64.2-123.56,93.27,0,0,21.8-218.04,102.96-163.53,0,0,2.42-21.8-96.91-49.67-99.33-27.86-129.61-18.17-129.61-18.17,0,0,151.42-87.22,264.07,15.75,0,0-3.63-14.54-60.57-62.99-56.93-48.45-83.58-144.15-89.64-164.74,0,0,142.94,99.33,195.03,221.68l33.92-10.9s-9.69-112.66-19.38-144.15c-9.69-31.5-20.59-153.84-12.11-181.7,0,0,9.69,109.02,15.75,124.77,6.06,15.75,14.54,54.51,14.54,54.51,0,0,50.88-145.36,100.54-176.86,0,0-71.47,174.43-60.57,308.89,0,0,60.57-241.06,342.81-325.85,0,0-141.73,121.13-187.76,199.87,0,0,122.35-71.47,141.73-65.41,0,0-36.34,84.79-178.07,146.57,0,0-37.55,35.13-43.61,60.57,0,0,83.58-58.14,134.46-39.97,50.88,18.17,175.65,134.46,181.7,144.15,0,0-139.3-64.2-159.9-65.41-20.59-1.21-122.35-20.59-158.69,23.02,0,0,69.05-8.48,72.68,1.21,3.63,9.69,4.85,26.65,4.85,26.65,0,0,21.8-15.75,50.88-1.21,29.07,14.54,95.7,77.53,95.7,77.53,0,0-79.95,7.27-146.57-21.8,0,0,0,50.88,21.8,88.43,0,0-73.89,1.21-101.75-107.81l-42.4,23.02-14.54-13.32s-42.4,54.51-69.05,61.78l-23.02-52.09Z"/>
    <ellipse class="cls-2" cx="817.29" cy="492.72" rx="209.38" ry="56.62"/>
  </g>
  <g>
    <ellipse class="cls-2" cx="470.31" cy="655.5" rx="209.38" ry="56.62"/>
    <path class="cls-1" d="M470,632.15s43.61-2.42,55.72-6.06c0,0,84.79,64.2,123.56,93.27,0,0-21.8-218.04-102.96-163.53,0,0-2.42-21.8,96.91-49.67,99.33-27.86,129.61-18.17,129.61-18.17,0,0-151.42-87.22-264.07,15.75,0,0,3.63-14.54,60.57-62.99,56.93-48.45,83.58-144.15,89.64-164.74,0,0-142.94,99.33-195.03,221.68l-33.92-10.9s9.69-112.66,19.38-144.15c9.69-31.5,20.59-153.84,12.11-181.7,0,0-9.69,109.02-15.75,124.77-6.06,15.75-14.54,54.51-14.54,54.51,0,0-50.88-145.36-100.54-176.86,0,0,71.47,174.43,60.57,308.89,0,0-60.57-241.06-342.81-325.85,0,0,141.73,121.13,187.76,199.87,0,0-122.35-71.47-141.73-65.41,0,0,36.34,84.79,178.07,146.57,0,0,37.55,35.13,43.61,60.57,0,0-83.58-58.14-134.46-39.97C130.83,466.19,6.06,582.48,0,592.17c0,0,139.3-64.2,159.9-65.41,20.59-1.21,122.35-20.59,158.69,23.02,0,0-69.05-8.48-72.68,1.21-3.63,9.69-4.85,26.65-4.85,26.65,0,0-21.8-15.75-50.88-1.21-29.07,14.54-95.7,77.53-95.7,77.53,0,0,79.95,7.27,146.57-21.8,0,0,0,50.88-21.8,88.43,0,0,73.89,1.21,101.75-107.81l42.4,23.02,14.54-13.32s42.4,54.51,69.05,61.78l23.02-52.09Z"/>
  </g>
</svg>