<?xml version="1.0" encoding="UTF-8"?>
<svg id="Camada_1" data-name="Camada 1" xmlns="http://www.w3.org/2000/svg" viewBox="0 0 1080 1080">
  <defs>
    <style>
      .cls-1 {
        fill: #355138;
      }

      .cls-2 {
        fill: #87bd5b;
      }

      .cls-3, .cls-4 {
        fill: #172318;
      }

      .cls-5 {
        fill: #5e7c3e;
      }

      .cls-4 {
        opacity: .4;
      }
    </style>
  </defs>
  <g>
    <ellipse class="cls-4" cx="536.17" cy="661.21" rx="37.71" ry="9.01"/>
    <path d="M588.55,543.15l.23,2.52c.91,21.51-16.25,33.63-16.25,33.63,6.64-6.86,4.81-29.52,4.81-29.52l-9.84.46c.63,28.16-6.42,32.86-16.02,39.58-6.18,4.33-15.12,6.31-21.92,7.23,6.17-6.45,15.43-19.31,18.25-40.4h-11.67s-3.16,27.02-14.85,36.81l-2.65.79c-14.32-11.33-11.1-41.71-11.1-41.71l-9.38-1.14-.23,4.58c-2.44,26.68,6.78,37.94,12.33,42.24-4.98-.88-12.91-2.84-21-7.12-13.29-7.03-6.64-41.81-6.64-41.81l-12.11-4.69s-2.34,14.85-.39,36.73c.88,9.85,5.48,16.06,10.27,19.9,4.78,3.84,10.8,5.82,16.93,6.16l15.11.84-4.54,52.63s15.27,4.49,17.07-1.8v-50.94c25.07,0,40.72-16.91,40.72-16.91,28.37-2.75,35.01-50.57,35.01-50.57l-12.13,2.52Z"/>
    <path class="cls-2" d="M488.88,554.43c19.91,6.3,41.31,6.04,62.07,3.84,15.13-1.61,30.36-4.27,44.15-10.7,13.79-6.42,26.13-16.98,32.16-30.95,5.15-11.92,5.32-25.9.47-37.95-4.85-12.05-14.66-22.01-26.63-27.04-11.68-4.91-24.71-5.14-37.38-5.3-21.68-.27-43.35-.54-65.03-.81-11.8-.15-24.3-.11-34.39,6-7.39,4.48-12.66,11.8-16.53,19.53-8.47,16.94-10,35.24-1.7,52.6,7.76,16.23,26.04,25.47,42.82,30.78Z"/>
    <path class="cls-2" d="M620.54,440.62c5.55-2.63,11.07-5.91,14.49-11.01,4.91-7.31,4.63-16.81,4.15-25.61-.79-14.77-10.51-28.06-23-35.98-28.78-18.23-68.5-19.05-100.25-8.96-11.64,3.7-23.02,9.17-31.54,17.93-8.52,8.76-13.84,21.21-11.92,33.28,3.59,22.64,29.84,38.82,51.43,40.07,29.68,1.72,60.27,4.47,88.88-6.42,2.63-1,5.21-2.1,7.76-3.3Z"/>
  </g>
  <g>
    <path class="cls-4" d="M500.32,722.6c.01,2.78-4.57,4.75-15.9,4.8-11.33.05-25.59-3.01-25.6-5.79s14.69-3.05,26.02-3.1,15.47,1.31,15.48,4.09Z"/>
    <g>
      <path class="cls-1" d="M458.91,720.38c-.55-3.47-.96-8.25,2.85-10.07,3.57-1.72,5.89,1.56,7.96,3.95.4-.88.82-1.78,1.45-2.52,2.32-2.72,6.31-2.12,8.57.31.93,1,1.63,2.2,2.32,3.38.24.42.49.84.67,1.28.72-1.08,1.03-2.34,2.1-3.13s2.31-1.23,3.58-1.37c2.03-.22,4.32.51,5.93,1.77,1.7,1.33,2.94,5.47,2.22,7.62"/>
      <path d="M458.91,720.38c-.62-3.29-1.11-7.69,2.05-9.88,3.73-2.63,6.81.8,9.01,3.53,0,0-.55.08-.55.08,1.11-3.18,4.05-5.36,7.46-4.28,3.17.92,4.76,4,6.16,6.73,0,0-.59-.06-.59-.06.5-.72.81-1.62,1.41-2.42,2.63-3.03,7.58-2.68,10.51-.32,2,1.92,2.86,5.14,2.18,7.8.54-2.6-.41-5.76-2.39-7.53-2.79-2.11-7.4-2.36-9.79.43-.52.69-.82,1.58-1.37,2.4-.1.15-.31.2-.46.09-.42-.64-.75-1.41-1.2-2.09-2.57-5.22-8.98-6.72-11.32-.49-.09.22-.41.26-.56.08-2.03-2.53-4.85-5.95-8.26-3.59-3.05,2.02-2.69,6.28-2.29,9.5h0Z"/>
    </g>
  </g>
  <g>
    <ellipse class="cls-4" cx="563.42" cy="692.48" rx="9.41" ry="3.58"/>
    <g>
      <path class="cls-3" d="M559.07,693.11l1.78-10.51s6.37-.89,16.43-1.48,14.51-4.74,13.17-11.1-15.25-7.85-29.16,4.14c0,0,1.78-3.4,6.07-7.25s13.47-21.46-.59-30.79c0,0-15.69,3.4-10.21,30.35l1.04,11.1-1.78-4.59s1.63-21.76-23.39-21.91c0,0-1.92,18.36,22.2,23.98,0,0,1.33,2.66,1.63,10.21l.3,7.55,2.52.3Z"/>
      <path class="cls-5" d="M567.02,676.7c4.1-2.18,8.71-3.47,13.35-3.81,1.55-.11,3.12-.1,4.67.11-6.22-.91-12.66.45-18.31,3.14-.37.18-.08.75.29.55h0Z"/>
      <path class="cls-5" d="M565.84,643.55c.05,7.26-1.27,14.5-3.86,21.24-.14.38.43.61.58.22,2.42-6.89,3.54-14.21,3.28-21.46h0Z"/>
      <path class="cls-5" d="M552.38,669c-3.02-4.77-7.13-8.8-11.91-11.71,4.66,3.09,8.58,7.25,11.37,12.04.21.36.75.03.53-.32h0Z"/>
    </g>
  </g>
</svg>