<?xml version="1.0" encoding="UTF-8"?>
<svg id="Camada_1" data-name="Camada 1" xmlns="http://www.w3.org/2000/svg" viewBox="0 0 1316.61 2226.79">
  <defs>
    <style>
      .cls-1 {
        fill: #23463b;
      }

      .cls-2 {
        fill: #3d493a;
        opacity: .2;
      }
    </style>
  </defs>
  <g>
    <ellipse class="cls-2" cx="787.64" cy="1896.42" rx="528.97" ry="81.38"/>
    <path d="M653.17,912.25c-30.11-5.06-53.72-30.23-65.45-58.42-11.73-28.19-13.63-59.35-15.38-89.83-8.38-145.78-16.77-291.56-25.15-437.34-26.18,2.86-52.36,5.72-78.53,8.57,79.83,215.96,79.04,460.68-2.21,676.11,25.99-39.79,51.99-79.57,77.98-119.36,21.14,29.71,58.27,47.27,94.65,44.76"/>
    <path class="cls-1" d="M585.2,952.92c15.83-82.13,127.21-89.25,185.63-65.97,82.79,32.98,175.99-18.49,259.77,23.95,15.45,7.83,30.32,17.44,47.19,21.36,16.87,3.91,36.91.65,47.24-13.25,32.23,68.18,29.06,151.96-8.23,217.5-14.45,25.39-29.25,51.93-31.07,81.09-1.82,29.16,13.56,61.62,41.72,69.38,44.32,12.22,92.4-39.81,132.82-17.9,32.76,17.76,26.91,67.95,6,98.79-20.91,30.84-52.51,56.3-60.88,92.61-8.82,38.27-21.23,76.51-44.28,108.32-23.04,31.8-58.13,56.64-97.28,59.77-50.16,4.01-108.46-24.97-146.57,7.89-24.67,21.27-28.88,61.47-56.89,78.12-20.82,12.37-48.92,7.63-68.9,21.33-26.12,17.92-25.03,56.07-37.41,85.23-22.33,52.56-85.96,71.22-141.71,83.61-37.45,8.33-76.96,7.23-113.9-3.17-82.18-10.74-146.62-96.46-134.12-178.38-52.04,12.1-105.54-24.44-130.67-71.58-25.13-47.15-28.5-102.45-31.34-155.8-30.66,14.76-64.4,23.11-98.4,24.34-12.29-25.34-33.41-46.3-58.85-58.38-13.55-58.51-27.1-117.02-40.65-175.53-7.61-32.86,33.75-53.2,53.82-80.3,29.34-39.6,11.29-95.28-7.74-140.75-10.84-6.5-21.67-12.99-32.51-19.49-32.44-52.16-19.79-127.6,27.9-166.32,47.68-38.72,124.12-35.61,168.5,6.84,27.55-15.88,57.26-32.29,88.98-30.02,31.72,2.27,63.29,32.4,54.4,62.93,77.05-6.61,155.61,5.07,227.42,33.79Z"/>
    <g>
      <path d="M498.84,396.23c-48.82-114.23-147.28-206.2-264.56-247.14,93.85,6.34,184.17,53.87,242.55,127.63-41.21-82.21-76.47-167.4-105.41-254.68,45.2,74.75,87.3,151.37,126.14,229.61-17.93-46.03-17.95-98.78-.07-144.83,17.88-46.05,53.5-84.95,97.8-106.82-120.01,75.29-95.17,193.49-75.28,289.67,29.79-62.9,90.84-110.02,159.24-122.9-37.69,30.55-75.93,61.69-103.39,101.68-27.46,40-43.13,90.83-30.56,137.69,2.42,9.04,5.88,18.02,5.68,27.37-.21,9.35-5.35,19.47-14.41,21.79-9.68,2.48-19.62-5.15-23.3-14.44-3.67-9.29-2.69-19.68-1.64-29.61"/>
      <path d="M495.16,326.17c-49.26-41.81-105.85-74.97-166.4-97.51,46.69,28.52,93.38,57.03,140.08,85.55"/>
      <path d="M524.91,348.06c-19.51-74.92-.01-158.89,50.52-217.54-60.44,83.75-26.76,128.5-49.52,189.97"/>
      <path d="M494.25,295.14c-38.33-69.89-78.59-142.02-142.64-189.46,35.08,58.13,75.7,112.91,121.13,163.37"/>
      <path d="M497.52,285.04c-36.55-62.13-63.41-166.62-48.7-237.63-2.57,20.13-1.06,40.38,2,60.19,6.38,39.48,19.03,78,35.91,114.09,8.47,17.91,18.12,35.31,29.49,50.69l-18.7,12.66h0Z"/>
      <path d="M497.43,387.87c5.18-105.77,38.06-218.05-10.06-318.34,55.15,96.38,30.64,213.85,32.64,318.8,0,0-22.58-.46-22.58-.46h0Z"/>
      <path d="M522.6,409.98l-115.91-156.63c-38.36-51.89-78.37-106.25-94.36-169.83,9.72,31.05,25.43,59.68,43.6,86.33,36.95,53.76,142.11,173.79,184.43,226.18,0,0-17.76,13.95-17.76,13.95h0Z"/>
    </g>
  </g>
  <g>
    <ellipse class="cls-2" cx="901.18" cy="2202.7" rx="90.86" ry="24.09"/>
    <path d="M880,2190.17c-72.81-126.81-82.51-286.73-25.43-421.05,0,0-7.61-3.1-7.61-3.1-55.14,136.79-42.63,297.89,33.04,424.15h0Z"/>
    <path d="M849.99,1809.94c3.92,3.65,8.63,6.33,13.29,8.97,2.6,1.47,5.25,2.96,8.17,3.61,2.92.65,6.2.34,8.54-1.52,3.15-2.49,3.8-7.24,2.41-11.01s-4.41-6.7-7.63-9.1c-9.44-7.06-20.98-10.6-32.27-14.02-.27-.08-1.04,3.78-1.08,4.14-.16,1.33.08,2.49.14,3.8.13,3.06,1.64,5.1,2.8,7.76,1.22,2.8,3.41,5.3,5.63,7.37Z"/>
    <path d="M844.43,1792.53c.41-.34-3.85-3.97-4.28-4.26-1.74-1.15-3.16-1.78-5.23-2.22-4.54-.96-9.32-1.12-13.85-.04-5.21,1.25-10.04,3.7-14.82,6.12-2.67,1.35-5.37,2.74-7.53,4.81-2.15,2.07-3.71,4.98-3.46,7.95.34,4,3.93,7.17,7.84,8.09,3.91.92,8.02.02,11.8-1.33,11.1-3.97,20.43-11.63,29.52-19.14Z"/>
    <path d="M828.4,1834.8c6.31,12.33,16.82,22.45,29.37,28.29,2.79,1.3,5.8,2.41,8.87,2.18,3.07-.23,6.2-2.13,6.99-5.1.65-2.42-.37-5.05-2.03-6.92s-3.89-3.13-6.11-4.31c-11.44-6.08-23.54-10.92-36.01-14.39-.52,1.11,0,2.59,1.1,3.13"/>
    <path d="M831.96,1833.14c-9.25,10.3-22,17.4-35.63,19.84-3.03.54-6.22.85-9.13-.16-2.91-1.01-5.45-3.64-5.45-6.72,0-2.51,1.65-4.78,3.74-6.17,2.09-1.39,4.57-2.03,7.01-2.6,12.61-2.95,25.54-4.53,38.5-4.69.22,1.21-.66,2.51-1.86,2.74"/>
    <path d="M832.69,2079.79c6.19,5.6,14.29,9.06,22.62,9.66,1.85.13,3.78.12,5.47-.67,1.68-.79,3.04-2.53,2.85-4.37-.15-1.5-1.29-2.77-2.63-3.47-1.34-.7-2.87-.93-4.36-1.12-7.75-.98-15.6-1.12-23.38-.4-.06.74.55,1.46,1.29,1.53"/>
    <path d="M834.24,2079.49c-3.01,7.79-8.68,14.52-15.84,18.81-1.59.95-3.33,1.81-5.18,1.86-1.86.05-3.85-.89-4.51-2.62-.54-1.41-.09-3.05.78-4.28.88-1.23,2.14-2.12,3.39-2.97,6.48-4.36,13.43-8.02,20.7-10.89.38.63.16,1.55-.46,1.95"/>
    <path d="M841.28,1910.41c2.49,2.1,5.54,4.29,8.72,3.55,3.07-.71,4.96-4.09,4.85-7.24-.11-3.15-1.8-6.03-3.76-8.5-7.54-9.47-20.12-14.65-32.14-13.24-2.56.57,7.76,12.03,8.13,12.4,4.55,4.53,9.29,8.88,14.19,13.02Z"/>
    <path d="M791.33,1900.08c-3.11,1-6.76,1.86-9.42-.03-2.57-1.82-3.03-5.67-1.73-8.54,1.3-2.87,3.95-4.89,6.71-6.43,10.57-5.89,24.18-5.9,34.76-.03,2.15,1.5-11.75,8.18-12.23,8.38-5.93,2.46-11.96,4.68-18.08,6.65Z"/>
    <path d="M815.81,1941.37c1.81,10.18,9.07,19.23,18.62,23.2,2.5,1.04,5.24,1.76,7.92,1.34,2.68-.42,5.28-2.17,6.07-4.76,1.07-3.49-1.28-7.07-3.81-9.69-7.49-7.74-17.87-12.61-28.61-13.41"/>
    <path d="M815.14,1939.95c-1.81,10.18-9.07,19.23-18.62,23.2-2.5,1.04-5.24,1.76-7.92,1.34-2.68-.42-5.28-2.17-6.07-4.76-1.07-3.49,1.28-7.07,3.81-9.69,7.49-7.74,17.87-12.61,28.61-13.41"/>
    <path d="M817.68,1992.17c2.93,8.89,10.6,16.07,19.67,18.4,2.38.61,4.92.9,7.27.18,2.35-.72,4.45-2.62,4.83-5.04.51-3.26-2.05-6.17-4.66-8.19-7.71-5.97-17.64-9-27.37-8.34"/>
    <path d="M816.89,1990.99c-.31,9.36-5.65,18.4-13.7,23.19-2.11,1.25-4.47,2.25-6.92,2.22s-5.01-1.26-6.05-3.48c-1.41-2.99.23-6.5,2.17-9.17,5.72-7.9,14.4-13.59,23.92-15.7"/>
    <path d="M823.67,2036.63c2.4,7.29,8.68,13.16,16.11,15.07,1.95.5,4.03.74,5.95.15,1.92-.59,3.65-2.15,3.96-4.13.42-2.67-1.68-5.05-3.82-6.71-6.31-4.89-14.45-7.37-22.42-6.83"/>
    <path d="M823.03,2035.66c-.25,7.67-4.63,15.07-11.22,19-1.73,1.03-3.66,1.84-5.67,1.82-2.01-.02-4.1-1.03-4.96-2.85-1.15-2.45.19-5.32,1.78-7.52,4.68-6.47,11.8-11.14,19.59-12.86"/>
    <path d="M866.01,2163.98c-3.08,11.19,2.66,24.16,13.01,29.39,4.13,2.09,9.68,2.79,12.97-.46,3.1-3.06,2.7-8.41.31-12.04-2.39-3.63-6.28-5.96-10.04-8.16-5.42-3.18-10.84-6.35-16.25-8.74Z"/>
    <path d="M837.65,2166.68c-2.41.05-4.78-.63-6.2-2.15-1.64-1.74-2.23-4.19-2.6-6.54-1.75-11.35.93-21.66,6.58-31.5,1.79-3.12,3.82-6.12,6.1-8.91.29-.35,2.71-2.56,2.65-2.99,1.96,13.92,2.81,27.88,2.32,41.94-.07,2-.18,4.06-.96,5.9-1.13,2.67-4.55,4.17-7.89,4.24Z"/>
    <path d="M886.58,2146.19c1.68-1.73,2.78-3.93,2.64-6.01-.16-2.38-1.55-4.49-3.03-6.35-7.13-9-16.51-14.05-27.56-16.6-3.51-.81-7.09-1.36-10.68-1.58-.45-.03-3.72.24-3.99-.09,8.87,10.9,18.53,21.03,29.17,30.23,1.52,1.31,3.09,2.63,4.98,3.31,2.73.99,6.15-.5,8.47-2.9Z"/>
    <g>
      <path d="M845.43,1774.7c4.02-14.6,3.71-30.71-1.22-45.66,6.79,14.2,9.4,30.69,7.1,46.87-.74,4.17-6.84,2.92-5.88-1.21h0Z"/>
      <path d="M840.08,1785.14c7.19-25.92,16.72-36.55,38.54-51.58-4.15,3.5-8.23,7.07-12.03,10.9-7.61,7.52-13.73,16.35-16.85,26.62-1.64,5.02-2.81,10.22-3.84,15.48-.94,4.03-6.85,2.61-5.83-1.42h0Z"/>
      <path d="M842.07,1779.82c6.61-7.62,11.15-16.7,11.72-26.91.75-8.9-.77-21.99-1.32-31.04,0,0,2.63,15.42,2.63,15.42,1.74,10.42,2.99,21.45-.7,31.74-1.78,5.2-4.49,10.01-7.57,14.46-.94,1.36-2.82,1.7-4.18.76-1.46-1-1.73-3.09-.57-4.42h0Z"/>
    </g>
  </g>
</svg>