<?xml version="1.0" encoding="UTF-8"?>
<svg id="Camada_1" data-name="Camada 1" xmlns="http://www.w3.org/2000/svg" viewBox="0 0 1509.41 2682.83">
  <defs>
    <style>
      .cls-1 {
        fill: #e38599;
      }
    </style>
  </defs>
  <g>
    <path class="cls-1" d="M1382.94,0h4.41s20.71,13.27,20.71,13.27c8.69,22.17,8.96,42.62,8.6,67.39,2.93-3.99,6.76-10.43,8.66-16.47,4.15-13.16,25.24-20.22,35.03-10.3,4.88,4.95,4.31,23.23-2.37,27.86-6.49,4.51-15.24,8.63-25.36,13.88,20.36,1.16,36.1,1.83,54.34,4.83,13.27,2.18,27.35,18.33,20.82,31.09-4.71,9.2-21.49,4.87-27.71-1.25-18.01-17.71-43.73-27.23-68.03-15.37,22.11,7.55,42.78,13.06,57.26,28.22,12.87,13.46,17.74,31.32,8.62,49.74l-16.54-9.27-10.48,11.6c-18.89-10.57-11.72-37.23-31.66-48.32-9.5-5.28-21.47-4.57-29.76.32,5.78,3.8,12.55,8.24,14.5,12.65,4.85,11.02-10.93,26.83-3.67,37.55s17.64,6.49,23.24,17.76c4.36,8.77-32.95,14.03-48.72-7.38-9.21-12.51-10.83-26.24-12.05-42.16l-13.25,10.11c-3.44,2.62,9.11,18.56,1.04,26.71-6.48,6.53-21.62-5.03-25.05-2.55-2.57,1.85-6.68,7.37-10.21,12.63,38.24-3.11,73.42,23.22,79.76,62.2,5.48,33.69-20.01,61.14-53.44,59.98-24.37-.85-46.59-14.57-53.59-38.16-4.76-16.04,1-30.33,12.94-41.15,9.36-8.48,25-14.96,38.96-8.67,11.29,5.09,15.86,17.5,10.05,28.15-9.58,17.58-38.81-2.19-45.88,15.44-5.08,12.66,12.65,30.62,30.65,28.74,22.34-2.33,41.56-19.65,43.61-41.68,1.95-20.93-13.51-38.82-27.88-46.03-57.88-29.02-102.64,65.92-115.16,45.39-11.74-19.26,76.51-58.02,45.87-115.06-7.03-13.09-22.94-27.19-41.95-26.97-24.2.28-43.01,20.42-44.86,44.21-1.17,14.99,9.65,31.28,25.51,30.73,22.35-.78-1.47-40.19,22.41-48.44,6.56-2.27,19.48,2.07,23.43,10.54,9.47,20.3-3.44,42.75-21.9,51.47-18.04,8.52-40.07,1.3-52.61-15.57-11.88-15.99-16.41-35.07-9.9-55.56,4.34-13.67,18.1-29.18,36.09-33.04,24.38-5.23,46.2,4.55,62.28,20.79,15.52,15.68,22.44,36.05,21,58.23,5.27-3.91,12.61-8.46,11.87-12.04l-3.62-17.59c-.77-3.72,7.76-10.32,11.25-8.88l14.12,5.83,14.55-15.02c-18.55-1.1-32.47-2.75-44.35-12.72-21.19-17.78-14.81-52.3-6.4-47.71,10.45,5.71,7.4,17.22,18.62,23.31,11.63,6.31,31.24-11.32,39.46-2.48,3.17,3.41,6.68,8.62,10.17,13.7,4.4-10.27,5.54-21.96-.67-31.54-14.32-22.1-66.91-16.36-36.55-41.76l-9.76-14.78c15.29-9.73,35.34-6.94,49.94,6.83,16.34,15.42,23.11,38.2,28.28,59.71,11.99-23.18,4.57-49.64-12.24-66.96-10.75-11.08-11.57-24.41-2.46-36.01Z"/>
    <path class="cls-1" d="M480.75,385.12c-35.09,29.85-78.07,27-123.72,17.08-8.23,16.01-19.2,32.28-35.5,40.8-10.96,5.73-25.05,1.7-31.09-8.97-6.4-11.3-9.46-24.44-12.96-39.38-42.73,43.74-109.71,50.71-139.43,6.82l-25.83-38.14c-6.57-9.7-14.43-18.06-26.72-22.04-5.12-1.66-17.28,2.16-20.38,6.27-3.38,4.48-4.56,15.83-1.08,21.47,10.39,16.82,7.85,37.45-10.74,45.82-13.05,5.88-29.42.5-38.15-7.36-11.52-10.37-15.28-24.67-12.2-39.96,7.55-37.46,47.05-33.72,68.74-57.22-25.16-1.17-42.1.93-64.51-10.47,9.12-13.32,20.38-20.98,34.68-29.25l-22.27-22.29C6.22,234.9-1.07,215.02.13,196.73c36.15-9.02,69.21,3.11,95.95,27.66.42-16.51-7.37-31.96-19.38-42.8-38.6-34.83-42.79-95.03-3.91-130.41,14.79-13.45,33.52-20.97,52.4-17.28,20.64,4.04,34,19.23,34.82,37.99,1.89,43.29-46.5,39.85-56.33,60.99-12.73,27.38,17.74,53.74,23.36,96.24,20.44-27.97-1.65-62.02,28.98-87.13,12.08-9.91,27.73-12.44,42.91-6.28,16.96,6.89,26.29,22.78,21.02,40.54-4.56,15.38-19.73,23.45-38.57,19.86-8.46-1.61-20.41,6.33-20.52,15.02-.18,13.96,10.03,26.26,23.52,29.18l44.48,9.62c37.96,8.21,62.34,33.68,67.16,75.04,9.54-11.84,17.42-22.14,28.1-28.58,12.37-7.46,27.64-2.51,34.43,9.65,8.22,14.71,9.66,30.39,11.74,49.82,34.08-9.69,49.94-55.32,72.89-52.61,23.23,2.74,43.18,3.48,64.48-6.57,48.34-22.8,95.66-48.46,136.77-83.35l45.85-43.6c-31.95,2.01-60.09,13.03-87.96,27.17-78.03,39.57-157.31,89.55-244.59,49.34-16.04-7.39-28.14-19.7-25.81-39.71l38.52.87c-9.17-14.71-18.57-28.28-22.44-44.61-5.75-24.24,8.1-48.68,28.51-60.41,29.94,14.68,7.04,47.77,31.66,59.37,9.54-31.99,26.09-56.99,48.45-69.45,53.2-29.64,112.75-6.04,100.36,16.36-10,18.08-37.17-.33-56.76,19.46-8.19,8.28-13.51,24.51-11.04,36.72l6.26,30.97c26.6-5.59,51.11-13.53,76.61-22.87,56.07-22.12,113.28-35.62,173.06-33.42,48.64-22.59,98.79-31.99,150.79-27.63,12.03-46.89,49.97-79.9,97.27-82.7,32.42-1.91,61.78,18.76,67.28,50.29,3.51,20.11-4.88,39.69-22.64,48.01-11.57,5.42-25.8,1.09-31.08-8.23-14.53-25.66,18.71-36,19.33-48.69.77-15.89-14.28-26.86-29.92-26.35-40.96,1.35-74.85,31.43-85.12,69.79,25.79,7.42,49.71,16.7,73.77,28.66l87.7,43.57c38.79,17.11,76.02,31.07,117.04,42.25l4.39,9.19c1.01,2.1-6.13,4.96-8.92,5.48-61.7-17.57-119.45-39.35-177.84-65.14-33.5-14.64-63.83-26.57-100.34-37.8.5,15.52,2.54,27.2,6.96,42.83,50.78,13.1,95.51,35.53,141.55,61.68,2.65,1.51,6.18,4.61,7.48,6.59,1.3,1.98-.33,8.61-2.61,9.26-2.85.81-9.35-.39-12.25-2.03-39.49-22.33-77.04-44.16-123.16-55.02,60.99,99.76,186.1,134.56,289.18,83.74,2.82.76,9.12,4.12,8.28,6.21l-4.53,11.22c-41.58,103.03,1.74,224.51,103.7,277.76-12.6-43.31-37.79-81.34-62.87-119.19l-3.25-10.65c-.7-2.3,5.81-5.59,8.11-4.94,2.88.82,6.86,4.34,9.04,7.72,28.56,44.23,54.26,86.73,70.08,136.73,15.64,3.54,27.55,4.94,43.35,3.68-14.68-37.92-29.18-68.3-46.59-101.8-28.29-54.43-52.39-108.16-73.39-166.2-1.14-3.14,1.15-10.72,4.06-11.75s9.78,3.55,10.81,6.68c19.62,59.68,48.02,112.24,80.07,165.92,19.98,33.47,38.29,65.37,51.07,101.84,37.48-12.73,63.07-45.53,64.27-85.97.54-18.22-14.56-33.75-27.31-32.21-14.35,1.74-21.27,32.25-43.61,24.71-12.69-4.28-19.85-16.83-15.58-30.48,5.42-17.31,23.08-28.14,41.47-27.73,35.46.8,60.56,30.31,60.04,66.22-.67,46.4-30.89,85.11-76.4,100.57,7.9,45.98,2.1,91.1-11.65,136.09s-37.92,85.14-72.63,120.09c-20.1,20.24-48.16,30.61-73.36,44.44-9.3,5.1-14.57,5.73-25.66,6.22-43.82,1.95-83.68-4.39-119.73-33.72-7.31,13.57-10.28,25.23-10.5,37.19,18.17-3.52,31.38-5.99,47.35-4.08,14.39,1.72,25.86,14.85,22.49,29.66-2.9,12.75-10.91,24.02-19.39,36.68,101.04-14.24,89.49,83.78,133.03,98.09,5.65,1.86,17.37-1.45,20.76-5.39,12.33-14.36-13.38-35.36,3.9-56.58,7.89-9.7,22.58-14.4,36.21-8.5,13.03,5.64,22.94,19.54,24.32,31.56,1.67,14.47-3.34,30.37-14.89,40.14-20.74,17.56-50.3,13.54-62.45,35.29,40.2-6.36,74.82,14.19,95.98-3.51,19.96-16.69,3-66.73,47.84-73.63,19.91-3.06,39.76,10.12,46.26,31.17,6.61,21.4-.45,44.91-14.7,62.89-28.54,36-78.08,40.7-116.95,17.65-15.17-8.99-33.51-11.36-47.75-6.07,33.3,16.65,54.86,49.02,55.14,84.93-31.17,9-59.71-3.43-82.96-21.94-2.49,16.8-7.07,31.68-18.27,43.33-16.93-18.82-19.68-35.65-27.67-59.11-16.51,31.23-1.97,76.23-47,87.04-21.79,5.23-43.47-7.54-47.9-30.58-1.7-8.84,2.31-20.97,8.6-26.32,17.43-14.81,37.03,1.49,50.44-10.72,4.92-4.49,6.05-17.65,1.92-23.5-6.35-9.02-16.29-15.24-26.22-18.38l-43.95-13.91c-30.55-9.67-49.82-37.53-51.61-69.52-1.3-23.32,5.84-45.31,16.33-66.88-14.27.85-28.77,1.63-40.93-1.09-15.36-3.44-22.09-19.08-16.82-33.24,5.77-15.5,16.84-28.96,27.79-40.85-31.74-53.81-36.68-91.64-8.25-145.98-4.24-29.33-11.58-59.47-5.33-88.71l-30.49,9.02c29.93,58.01-.05,137.05-53.48,170.58-44.05,27.64-103.52,12.38-97.64-14.89,4.24-19.65,47.04.45,63.1-28.91,13.81-25.24-14.46-57.59,13.96-83.2,11.14-10.03,27.11-10.42,41.45-6.15,6.17-1.19,12.12-13.46,10.53-19.07-1.94-6.87-9.14-14.48-15.27-15.7-21.2-4.22-23.17,25.55-47.08,31.12-10.3,2.4-24.18-1.14-32.76-9.14-19.11-17.83-16.15-50.85-41.45-59.27-31.67-10.53-44.45,22.17-60.68,13.17-22.71-12.59,11.14-57.03,53.45-66.76,32.26-7.42,64.12,4.21,89.58,26.24l21.97-29.72c15.27-20.66.99-49.27-21.85-58.6-6.95-2.84-12.88-10.81-13.09-16.8-.23-6.58,7.82-15.37,15.08-15.29,49.37.55,87.04,36.33,92.72,84.23,2.87,24.19-1.47,43.69-9.77,67.71l30.82-15c12.31-42.11,38.76-71.97,72.4-96.9,30.93-72.08,12.82-159.68-55.63-197.26-29.79-16.36-64.17-14.06-89.5,6.98-12.33,10.24-16.95,24.47-12.27,38.13,4.77,13.92,18.42,25.01,35.63,23.34l34.87-3.37c19.34-1.87,36.07,9.95,41.02,25.46,5.93,18.61-1.59,38.66-20.01,47.2-14.32,6.64-31.44,8.97-47.34,5.4-49.76-11.17-81.17-57.6-76.88-106.66-54.77,70.98-145.88,96.11-228.78,66.52,19.06,38.03,9.66,78.1-18.27,107.66-6.31,1.96-15.77,2.13-20.78-1.89-13.39-10.74,12.3-33.02-2.48-58.49s-47.51-13.37-68.97-25.22c-10.37-5.73-18.6-17.81-19.7-26.87-3.16-25.99,22.92-33.64,17.29-55.04-1.56-5.94-11.66-11.76-19.19-12.29-6.23-.44-16.39,7.7-16.97,14.88,8.62,13.11,12.92,27.89,5.59,43.69-15.86,34.2-61.56,12.86-79.43,41.26-15.19,24.15,9.37,49.2-3.77,61.6-6.09,5.75-17.41,4.5-23.47-1.34-19.7-18.99-26.13-45.5-23.09-72.63,7.09-63.13,82.41-128.24,151.88-113.45-4.8-38.29,8.48-70.38,24.23-105.87-60.83,23.09-90.27,75.95-131.27,110.83ZM1275.61,824.44c16.18,16.78,34.45-2.7,62.33,6.16,50.75-59.18,72.23-142.09,52.39-218.35l-43.31-2.14c10.55,46.77,6.06,94.66-15.77,136.65-5.15,34.22-25,58.85-55.63,77.67ZM1282.7,643.77c-2.9,3.44-7.79,7.47-9.58,6.14l-5.97-4.43c-.61-30.69-19.09-55.93-47.28-68.21,4.98,60.44-6.7,117.01-.82,173.23l33.48-3.38c12.3-1.24,26.26-12.53,30.48-21.92,11.62-25.85-14.01-49.44,3.68-59.79,15.4-9.01,27.98,8.54,38.37,29.05,8.89-31.44,9.49-61.76,1.97-91.98-110.3-49.7-165.3-172.87-128.96-291.01-87.93,30.71-182.26,11.05-249.14-52.75l1.3,37.46c9.27,22.78,11.25,45.71,7.71,72.81,57.17-57.71,131.83-35.37,180.88,22.18,41.61,48.82,69.21,105.98,78.86,169.19,37.86,12.22,62.53,42.32,65.03,83.43ZM1246.88,884.2l14.26-4.55-13.81-4.54c-2.46-.81-1.14,10.15-.45,9.09ZM1106.68,1052.75c-12.66,34.6,8.21,70.18,43.83,81.21,33.76,7.31,67.89-1.33,105.67,8.89-22.16-39.56-14.89-82.05-41.17-115.05-20.11-22.34-51.3-30.74-76.64-12.93l31.85,9.72c25.46,7.77,43.01,36.31,34.54,61.99-4.42,13.39-18.41,21.78-30.07,23.35-33.24,4.49-52.64-22.48-68-57.19ZM1168.48,574.28l-19.26,64.27c-15.91,53.1-44.86,139.27-23.16,180.09,6.85,12.89,7.42,23.87.16,38.72,21.47,14.62,44.84,25.68,73.67,28.61-21.55-33.65-31.37-67.43-31.35-105.47-28.86-26.05-42.66-78.35-26.77-75.78,12.82,2.07,6.37,27.73,26.46,47.54l16.18-88.17c5.77-31.43,9.65-59.78,7.66-92.31l-23.61,2.5ZM1170.77,557.08l17.62-1.11c-4.2-10.64-8.36-19.8-14.23-30.33l-3.39,31.44ZM1066.32,772.12c22.88-35.77,41.47-72.4,44.12-112.41l-45.69,37.75c-7.79,22.91-5.24,50.26,1.58,74.65ZM1084.84,640.09l4.53,1.1,20.25-28.48-3.2-2.74-21.59,30.11ZM767.92,232.84c-35.51,30.97-46.92,81.83-17.15,118.47l17.67,17.83c16.86,17.01,44.45,8.72,46.3,22.11.43,3.11-6.42,8.28-9.54,7.8l-21.14-3.26c-1.2,8.76-3.27,17.66-7.93,21-4.23,3.04-16.59.86-20.07-3.47-13.66-17-35.53-26.79-55.8-15.81-10.53,5.7-18.42,19.24-25.25,31.16,67.27,69.28,181.55,54.88,239.91-14.51,21.2-25.21,34.45-55.81,26.88-89.85-19.26,44.13-66.62,61.58-111.25,46.06-36.43-12.67-63.96-43.24-64.08-82.55-.06-21.84,14.65-39.13,33.95-41.7,19.96-2.66,38.69,9.93,42.86,31.55l6.76,35.1c2.42,12.54,15.07,23.49,24.38,25.59,13.42,3.03,26.5.48,35.01-10.52,8.43-10.91,14.79-30.94,11.07-43.69-21.32-28.81-71.94-17.75-59.38-32.92,9.11-11,31.93-.3,53.85,4.82-13.93-29.65-41.33-49.03-70.53-57.61-28.58,7.15-54.68,14.46-76.52,34.37ZM779.65,143.73c30.38,8.03,57.29,14.56,83.88,27.44,10.38,5.03,22.44,8.19,32.4,8.73l-5.57-42.9c-35.79-6.7-73.79-6.31-110.71,6.72ZM713.41,333.65c-14.32-42.51-3.2-77.2,20.71-107.56,13.39-11.51,27.4-21.58,42.57-32.67-63.69,11.76-117.25,54.01-147.25,110.56-6.59,12.42-.55,33.09,1.51,46.36,28-15.04,53.6-19.55,82.46-16.69ZM708.75,176.64c7.94,2.91,11.7.18,12.54-4.13l-12.54,4.13ZM236.44,389.2c-26.6-4.5-46.5-8.31-61.56-23.99-16.16-18.7-17.9-47.61,3.93-61.76,17.62-11.42,43.84-7.04,59.46,7.76,11.09,10.51,18.23,25.04,25.87,38.29,9.39-26.25-2.79-51.73-24.48-65.72-38.92-25.11-82.22-1.49-131.49-12.23,20.69,32.31,21.49,67.16,37.85,96.45,18.52,33.16,62.75,43.68,90.42,21.22Z"/>
  </g>
  <g>
    <path class="cls-1" d="M1509.41,2556.35v4.41s-13.27,20.71-13.27,20.71c-22.17,8.69-42.62,8.96-67.39,8.6,3.99,2.93,10.43,6.76,16.47,8.66,13.16,4.15,20.22,25.24,10.3,35.03-4.95,4.88-23.23,4.31-27.86-2.37-4.51-6.49-8.63-15.24-13.88-25.36-1.16,20.36-1.83,36.1-4.83,54.34-2.18,13.27-18.33,27.35-31.09,20.82-9.2-4.71-4.87-21.49,1.25-27.71,17.71-18.01,27.23-43.73,15.37-68.03-7.55,22.11-13.06,42.78-28.22,57.26-13.46,12.87-31.32,17.74-49.74,8.62l9.27-16.54-11.6-10.48c10.57-18.89,37.23-11.72,48.32-31.66,5.28-9.5,4.57-21.47-.32-29.76-3.8,5.78-8.24,12.55-12.65,14.5-11.02,4.85-26.83-10.93-37.55-3.67s-6.49,17.64-17.76,23.24c-8.77,4.36-14.03-32.95,7.38-48.72,12.51-9.21,26.24-10.83,42.16-12.05l-10.11-13.25c-2.62-3.44-18.56,9.11-26.71,1.04-6.53-6.48,5.03-21.62,2.55-25.05-1.85-2.57-7.37-6.68-12.63-10.21,3.11,38.24-23.22,73.42-62.2,79.76-33.69,5.48-61.14-20.01-59.98-53.44.85-24.37,14.57-46.59,38.16-53.59,16.04-4.76,30.33,1,41.15,12.94,8.48,9.36,14.96,25,8.67,38.96-5.09,11.29-17.5,15.86-28.15,10.05-17.58-9.58,2.19-38.81-15.44-45.88-12.66-5.08-30.62,12.65-28.74,30.65,2.33,22.34,19.65,41.56,41.68,43.61,20.93,1.95,38.82-13.51,46.03-27.88,29.02-57.88-65.92-102.64-45.39-115.16,19.26-11.74,58.02,76.51,115.06,45.87,13.09-7.03,27.19-22.94,26.97-41.95-.28-24.2-20.42-43.01-44.21-44.86-14.99-1.17-31.28,9.65-30.73,25.51.78,22.35,40.19-1.47,48.44,22.41,2.27,6.56-2.07,19.48-10.54,23.43-20.3,9.47-42.75-3.44-51.47-21.9-8.52-18.04-1.3-40.07,15.57-52.61,15.99-11.88,35.07-16.41,55.56-9.9,13.67,4.34,29.18,18.1,33.04,36.09,5.23,24.38-4.55,46.2-20.79,62.28-15.68,15.52-36.05,22.44-58.23,21,3.91,5.27,8.46,12.61,12.04,11.87l17.59-3.62c3.72-.77,10.32,7.76,8.88,11.25l-5.83,14.12,15.02,14.55c1.1-18.55,2.75-32.47,12.72-44.35,17.78-21.19,52.3-14.81,47.71-6.4-5.71,10.45-17.22,7.4-23.31,18.62-6.31,11.63,11.32,31.24,2.48,39.46-3.41,3.17-8.62,6.68-13.7,10.17,10.27,4.4,21.96,5.54,31.54-.67,22.1-14.32,16.36-66.91,41.76-36.55l14.78-9.76c9.73,15.29,6.94,35.34-6.83,49.94-15.42,16.34-38.2,23.11-59.71,28.28,23.18,11.99,49.64,4.57,66.96-12.24,11.08-10.75,24.41-11.57,36.01-2.46Z"/>
    <path class="cls-1" d="M1124.3,1654.17c-29.85-35.09-27-78.07-17.08-123.72-16.01-8.23-32.28-19.2-40.8-35.5-5.73-10.96-1.7-25.05,8.97-31.09,11.3-6.4,24.44-9.46,39.38-12.96-43.74-42.73-50.71-109.71-6.82-139.43l38.14-25.83c9.7-6.57,18.06-14.43,22.04-26.72,1.66-5.12-2.16-17.28-6.27-20.38-4.48-3.38-15.83-4.56-21.47-1.08-16.82,10.39-37.45,7.85-45.82-10.74-5.88-13.05-.5-29.42,7.36-38.15,10.37-11.52,24.67-15.28,39.96-12.2,37.46,7.55,33.72,47.05,57.22,68.74,1.17-25.16-.93-42.1,10.47-64.51,13.32,9.12,20.98,20.38,29.25,34.68l22.29-22.27c13.4-13.38,33.27-20.67,51.57-19.47,9.02,36.15-3.11,69.21-27.66,95.95,16.51.42,31.96-7.37,42.8-19.38,34.83-38.6,95.03-42.79,130.41-3.91,13.45,14.79,20.97,33.52,17.28,52.4-4.04,20.64-19.23,34-37.99,34.82-43.29,1.89-39.85-46.5-60.99-56.33-27.38-12.73-53.74,17.74-96.24,23.36,27.97,20.44,62.02-1.65,87.13,28.98,9.91,12.08,12.44,27.73,6.28,42.91-6.89,16.96-22.78,26.29-40.54,21.02-15.38-4.56-23.45-19.73-19.86-38.57,1.61-8.46-6.33-20.41-15.02-20.52-13.96-.18-26.26,10.03-29.18,23.52l-9.62,44.48c-8.21,37.96-33.68,62.34-75.04,67.16,11.84,9.54,22.14,17.42,28.58,28.1,7.46,12.37,2.51,27.64-9.65,34.43-14.71,8.22-30.39,9.66-49.82,11.74,9.69,34.08,55.32,49.94,52.61,72.89-2.74,23.23-3.48,43.18,6.57,64.48,22.8,48.34,48.46,95.66,83.35,136.77l43.6,45.85c-2.01-31.95-13.03-60.09-27.17-87.96-39.57-78.03-89.55-157.31-49.34-244.59,7.39-16.04,19.7-28.14,39.71-25.81l-.87,38.52c14.71-9.17,28.28-18.57,44.61-22.44,24.24-5.75,48.68,8.1,60.41,28.51-14.68,29.94-47.77,7.04-59.37,31.66,31.99,9.54,56.99,26.09,69.45,48.45,29.64,53.2,6.04,112.75-16.36,100.36-18.08-10,.33-37.17-19.46-56.76-8.28-8.19-24.51-13.51-36.72-11.04l-30.97,6.26c5.59,26.6,13.53,51.11,22.87,76.61,22.12,56.07,35.62,113.28,33.42,173.06,22.59,48.64,31.99,98.79,27.63,150.79,46.89,12.03,79.9,49.97,82.7,97.27,1.91,32.42-18.76,61.78-50.29,67.28-20.11,3.51-39.69-4.88-48.01-22.64-5.42-11.57-1.09-25.8,8.23-31.08,25.66-14.53,36,18.71,48.69,19.33,15.89.77,26.86-14.28,26.35-29.92-1.35-40.96-31.43-74.85-69.79-85.12-7.42,25.79-16.7,49.71-28.66,73.77l-43.57,87.7c-17.11,38.79-31.07,76.02-42.25,117.04l-9.19,4.39c-2.1,1.01-4.96-6.13-5.48-8.92,17.57-61.7,39.35-119.45,65.14-177.84,14.64-33.5,26.57-63.83,37.8-100.34-15.52.5-27.2,2.54-42.83,6.96-13.1,50.78-35.53,95.51-61.68,141.55-1.51,2.65-4.61,6.18-6.59,7.48-1.98,1.3-8.61-.33-9.26-2.61-.81-2.85.39-9.35,2.03-12.25,22.33-39.49,44.16-77.04,55.02-123.16-99.76,60.99-134.56,186.1-83.74,289.18-.76,2.82-4.12,9.12-6.21,8.28l-11.22-4.53c-103.03-41.58-224.51,1.74-277.76,103.7,43.31-12.6,81.34-37.79,119.19-62.87l10.65-3.25c2.3-.7,5.59,5.81,4.94,8.11-.82,2.88-4.34,6.86-7.72,9.04-44.23,28.56-86.73,54.26-136.73,70.08-3.54,15.64-4.94,27.55-3.68,43.35,37.92-14.68,68.3-29.18,101.8-46.59,54.43-28.29,108.16-52.39,166.2-73.39,3.14-1.14,10.72,1.15,11.75,4.06s-3.55,9.78-6.68,10.81c-59.68,19.62-112.24,48.02-165.92,80.07-33.47,19.98-65.37,38.29-101.84,51.07,12.73,37.48,45.53,63.07,85.97,64.27,18.22.54,33.75-14.56,32.21-27.31-1.74-14.35-32.25-21.27-24.71-43.61,4.28-12.69,16.83-19.85,30.48-15.58,17.31,5.42,28.14,23.08,27.73,41.47-.8,35.46-30.31,60.56-66.22,60.04-46.4-.67-85.11-30.89-100.57-76.4-45.98,7.9-91.1,2.1-136.09-11.65s-85.14-37.92-120.09-72.63c-20.24-20.1-30.61-48.16-44.44-73.36-5.1-9.3-5.73-14.57-6.22-25.66-1.95-43.82,4.39-83.68,33.72-119.73-13.57-7.31-25.23-10.28-37.19-10.5,3.52,18.17,5.99,31.38,4.08,47.35-1.72,14.39-14.85,25.86-29.66,22.49-12.75-2.9-24.02-10.91-36.68-19.39,14.24,101.04-83.78,89.49-98.09,133.03-1.86,5.65,1.45,17.37,5.39,20.76,14.36,12.33,35.36-13.38,56.58,3.9,9.7,7.89,14.4,22.58,8.5,36.21-5.64,13.03-19.54,22.94-31.56,24.32-14.47,1.67-30.37-3.34-40.14-14.89-17.56-20.74-13.54-50.3-35.29-62.45,6.36,40.2-14.19,74.82,3.51,95.98,16.69,19.96,66.73,3,73.63,47.84,3.06,19.91-10.12,39.76-31.17,46.26-21.4,6.61-44.91-.45-62.89-14.7-36-28.54-40.7-78.08-17.65-116.95,8.99-15.17,11.36-33.51,6.07-47.75-16.65,33.3-49.02,54.86-84.93,55.14-9-31.17,3.43-59.71,21.94-82.96-16.8-2.49-31.68-7.07-43.33-18.27,18.82-16.93,35.65-19.68,59.11-27.67-31.23-16.51-76.23-1.97-87.04-47-5.23-21.79,7.54-43.47,30.58-47.9,8.84-1.7,20.97,2.31,26.32,8.6,14.81,17.43-1.49,37.03,10.72,50.44,4.49,4.92,17.65,6.05,23.5,1.92,9.02-6.35,15.24-16.29,18.38-26.22l13.91-43.95c9.67-30.55,37.53-49.82,69.52-51.61,23.32-1.3,45.31,5.84,66.88,16.33-.85-14.27-1.63-28.77,1.09-40.93,3.44-15.36,19.08-22.09,33.24-16.82,15.5,5.77,28.96,16.84,40.85,27.79,53.81-31.74,91.64-36.68,145.98-8.25,29.33-4.24,59.47-11.58,88.71-5.33l-9.02-30.49c-58.01,29.93-137.05-.05-170.58-53.48-27.64-44.05-12.38-103.52,14.89-97.64,19.65,4.24-.45,47.04,28.91,63.1,25.24,13.81,57.59-14.46,83.2,13.96,10.03,11.14,10.42,27.11,6.15,41.45,1.19,6.17,13.46,12.12,19.07,10.53,6.87-1.94,14.48-9.14,15.7-15.27,4.22-21.2-25.55-23.17-31.12-47.08-2.4-10.3,1.14-24.18,9.14-32.76,17.83-19.11,50.85-16.15,59.27-41.45,10.53-31.67-22.17-44.45-13.17-60.68,12.59-22.71,57.03,11.14,66.76,53.45,7.42,32.26-4.21,64.12-26.24,89.58l29.72,21.97c20.66,15.27,49.27.99,58.6-21.85,2.84-6.95,10.81-12.88,16.8-13.09,6.58-.23,15.37,7.82,15.29,15.08-.55,49.37-36.33,87.04-84.23,92.72-24.19,2.87-43.69-1.47-67.71-9.77l15,30.82c42.11,12.31,71.97,38.76,96.9,72.4,72.08,30.93,159.68,12.82,197.26-55.63,16.36-29.79,14.06-64.17-6.98-89.5-10.24-12.33-24.47-16.95-38.13-12.27-13.92,4.77-25.01,18.42-23.34,35.63l3.37,34.87c1.87,19.34-9.95,36.07-25.46,41.02-18.61,5.93-38.66-1.59-47.2-20.01-6.64-14.32-8.97-31.44-5.4-47.34,11.17-49.76,57.6-81.17,106.66-76.88-70.98-54.77-96.11-145.88-66.52-228.78-38.03,19.06-78.1,9.66-107.66-18.27-1.96-6.31-2.13-15.77,1.89-20.78,10.74-13.39,33.02,12.3,58.49-2.48s13.37-47.51,25.22-68.97c5.73-10.37,17.81-18.6,26.87-19.7,25.99-3.16,33.64,22.92,55.04,17.29,5.94-1.56,11.76-11.66,12.29-19.19.44-6.23-7.7-16.39-14.88-16.97-13.11,8.62-27.89,12.92-43.69,5.59-34.2-15.86-12.86-61.56-41.26-79.43-24.15-15.19-49.2,9.37-61.6-3.77-5.75-6.09-4.5-17.41,1.34-23.47,18.99-19.7,45.5-26.13,72.63-23.09,63.13,7.09,128.24,82.41,113.45,151.88,38.29-4.8,70.38,8.48,105.87,24.23-23.09-60.83-75.95-90.27-110.83-131.27ZM684.98,2449.03c-16.78,16.18,2.7,34.45-6.16,62.33,59.18,50.75,142.09,72.23,218.35,52.39l2.14-43.31c-46.77,10.55-94.66,6.06-136.65-15.77-34.22-5.15-58.85-25-77.67-55.63ZM865.64,2456.11c-3.44-2.9-7.47-7.79-6.14-9.58l4.43-5.97c30.69-.61,55.93-19.09,68.21-47.28-60.44,4.98-117.01-6.7-173.23-.82l3.38,33.48c1.24,12.3,12.53,26.26,21.92,30.48,25.85,11.62,49.44-14.01,59.79,3.68,9.01,15.4-8.54,27.98-29.05,38.37,31.44,8.89,61.76,9.49,91.98,1.97,49.7-110.3,172.87-165.3,291.01-128.96-30.71-87.93-11.05-182.26,52.75-249.14l-37.46,1.3c-22.78,9.27-45.71,11.25-72.81,7.71,57.71,57.17,35.37,131.83-22.18,180.88-48.82,41.61-105.98,69.21-169.19,78.86-12.22,37.86-42.32,62.53-83.43,65.03ZM625.21,2420.3l4.55,14.26,4.54-13.81c.81-2.46-10.15-1.14-9.09-.45ZM456.67,2280.1c-34.6-12.66-70.18,8.21-81.21,43.83-7.31,33.76,1.33,67.89-8.89,105.67,39.56-22.16,82.05-14.89,115.05-41.17,22.34-20.11,30.74-51.3,12.93-76.64l-9.72,31.85c-7.77,25.46-36.31,43.01-61.99,34.54-13.39-4.42-21.78-18.41-23.35-30.07-4.49-33.24,22.48-52.64,57.19-68ZM935.13,2341.89l-64.27-19.26c-53.1-15.91-139.27-44.86-180.09-23.16-12.89,6.85-23.87,7.42-38.72.16-14.62,21.47-25.68,44.84-28.61,73.67,33.65-21.55,67.43-31.37,105.47-31.35,26.05-28.86,78.35-42.66,75.78-26.77-2.07,12.82-27.73,6.37-47.54,26.46l88.17,16.18c31.43,5.77,59.78,9.65,92.31,7.66l-2.5-23.61ZM952.34,2344.19l1.11,17.62c10.64-4.2,19.8-8.36,30.33-14.23l-31.44-3.39ZM737.3,2239.74c35.77,22.88,72.4,41.47,112.41,44.12l-37.75-45.69c-22.91-7.79-50.26-5.24-74.65,1.58ZM869.33,2258.26l-1.1,4.53,28.48,20.25,2.74-3.2-30.11-21.59ZM1276.58,1941.34c-30.97-35.51-81.83-46.92-118.47-17.15l-17.83,17.67c-17.01,16.86-8.72,44.45-22.11,46.3-3.11.43-8.28-6.42-7.8-9.54l3.26-21.14c-8.76-1.2-17.66-3.27-21-7.93-3.04-4.23-.86-16.59,3.47-20.07,17-13.66,26.79-35.53,15.81-55.8-5.7-10.53-19.24-18.42-31.16-25.25-69.28,67.27-54.88,181.55,14.51,239.91,25.21,21.2,55.81,34.45,89.85,26.88-44.13-19.26-61.58-66.62-46.06-111.25,12.67-36.43,43.24-63.96,82.55-64.08,21.84-.06,39.13,14.65,41.7,33.95,2.66,19.96-9.93,38.69-31.55,42.86l-35.1,6.76c-12.54,2.42-23.49,15.07-25.59,24.38-3.03,13.42-.48,26.5,10.52,35.01,10.91,8.43,30.94,14.79,43.69,11.07,28.81-21.32,17.75-71.94,32.92-59.38,11,9.11.3,31.93-4.82,53.85,29.65-13.93,49.03-41.33,57.61-70.53-7.15-28.58-14.46-54.68-34.37-76.52ZM1365.68,1953.06c-8.03,30.38-14.56,57.29-27.44,83.88-5.03,10.38-8.19,22.44-8.73,32.4l42.9-5.57c6.7-35.79,6.31-73.79-6.72-110.71ZM1175.77,1886.83c42.51-14.32,77.2-3.2,107.56,20.71,11.51,13.39,21.58,27.4,32.67,42.57-11.76-63.69-54.01-117.25-110.56-147.25-12.42-6.59-33.09-.55-46.36,1.51,15.04,28,19.55,53.6,16.69,82.46ZM1332.78,1882.17c-2.91,7.94-.18,11.7,4.13,12.54l-4.13-12.54ZM1120.21,1409.85c4.5-26.6,8.31-46.5,23.99-61.56,18.7-16.16,47.61-17.9,61.76,3.93,11.42,17.62,7.04,43.84-7.76,59.46-10.51,11.09-25.04,18.23-38.29,25.87,26.25,9.39,51.73-2.79,65.72-24.48,25.11-38.92,1.49-82.22,12.23-131.49-32.31,20.69-67.16,21.49-96.45,37.85-33.16,18.52-43.68,62.75-21.22,90.42Z"/>
  </g>
</svg>