<?xml version="1.0" encoding="UTF-8"?>
<svg id="Camada_1" data-name="Camada 1" xmlns="http://www.w3.org/2000/svg" xmlns:xlink="http://www.w3.org/1999/xlink" viewBox="0 0 1080 1080">
  <defs>
    <style>
      .cls-1 {
        fill: none;
      }

      .cls-2 {
        fill: url(#Mini);
      }

      .cls-3 {
        fill: url(#Gradiente_sem_nome_36);
      }

      .cls-4 {
        fill: #a3b571;
      }

      .cls-5 {
        clip-path: url(#clippath-1);
      }

      .cls-6 {
        fill: #5e7c3e;
      }

      .cls-7 {
        fill: #fff;
      }

      .cls-8 {
        opacity: .4;
      }

      .cls-9 {
        clip-path: url(#clippath);
      }
    </style>
    <radialGradient id="Gradiente_sem_nome_36" data-name="Gradiente sem nome 36" cx="540" cy="540" fx="540" fy="540" r="84" gradientUnits="userSpaceOnUse">
      <stop offset="0" stop-color="#6bff0b"/>
      <stop offset=".37" stop-color="#65ea0f" stop-opacity=".62"/>
      <stop offset=".8" stop-color="#5fd214" stop-opacity=".18"/>
      <stop offset="1" stop-color="#5dc917" stop-opacity="0"/>
    </radialGradient>
    <clipPath id="clippath">
      <path class="cls-1" d="M561,555.55c1.66,1.58,3.93,2.6,6.21,3.01,3.5.62,4.73.78,8.28,1.01,2.73.18,1.46.27,6.81.9-2.45-4.46-4.85-7.01-6.12-8.26-.93-.92-1.7-1.58-2.47-2.11.61.06,1.37.12,2.36.2-2.64-4.36-5.14-6.8-6.46-8-.59-.54-1.12-.98-1.63-1.37.06-.03.11-.05.16-.07,1.62-.76,4.73-2.35,8.54-5.72-5.25-1.2-4.09-.69-6.72-1.44-3.42-.97-4.63-1.24-8.13-1.83-.65-.11-1.31-.17-1.97-.18.97-2.15,1.24-4.75,1.44-7.15.31-3.72.97-7.95,4.08-10.01-3.1,1.86-7.08,1.38-10.42,2.74-.13.05-.26.12-.39.18-.15-1.37-.39-2.92-.79-4.66-3.58,4.03-2.57,3.25-4.49,5.2-.27.27-.52.52-.75.76-.23-1.28-.7-2.52-1.41-3.61-1.98-3.02-5.53-4.89-7.02-8.18,1.39,3.46-.46,7.29-2.31,10.53-.17-2.12.07-1.35-.12-6.4-1.2.92-2.23,1.82-3.11,2.65-.24-.99-.63-1.95-1.17-2.82-1.9-3.07-5.4-5.02-6.81-8.35,1.31,3.5-.65,7.3-2.59,10.5-1.51,2.48-3.1,5.26-3.23,8.06-.41-.49-.89-1-1.47-1.58-1.27-1.25-3.85-3.62-8.34-6.01.7,5.34.77,4.07.99,6.8.08,1.05.16,1.89.24,2.65-.17-.01-.35-.02-.53-.03-1.78-.09-5.28-.16-10.23,1.03,4.07,3.54,3.28,2.54,5.25,4.44,1.71,1.65,2.69,2.55,3.99,3.62-1.02-.07-1.36-.22-5.34-.46,1.36,2.18,2.69,3.87,3.83,5.16-.2.11-.4.22-.59.35-3.03,1.97-4.91,5.51-8.2,6.99,1.09-.43,2.21-.55,3.34-.44-.45.05-.92.12-1.44.2-1.76.29-5.19.99-9.76,3.22,4.74,2.57,3.75,1.77,6.09,3.19,1.33.82,2.29,1.38,3.22,1.9-1.9,2.32-3.22,5.22-5.72,6.87,1.66-.99,3.55-1.14,5.47-.87-.63.94-1.1,1.97-1.37,3.07-.85,3.51.21,7.38-1.17,10.71,1.58-3.39,5.66-4.66,9.3-5.52,1.69-.4,3.48-.85,5.09-1.55-.18.42-.36.87-.54,1.37-.61,1.68-1.7,5-2.03,10.08,4.58-2.85,3.39-2.39,5.78-3.71,3.11-1.72,4.16-2.38,7.06-4.43.43-.31.85-.64,1.25-1,.09,1.86.38,4.3,1.11,7.25,3.5-4.1,2.51-3.3,4.39-5.29.04-.04.07-.07.11-.11.18.8.45,1.66.85,2.69.64,1.67,2,4.89,5.1,8.93,1.58-5.15.98-4.03,1.92-6.6.34-.94.61-1.71.85-2.41,1.05.63,2.22,1.08,3.44,1.28,1.28.21,2.59.16,3.91.07.96,1.77,1.97,2.93,4.11,4.58,1.41,1.09,4.26,3.12,9.01,4.96-1.31-5.08-1.26-4.01-1.76-6.43.63.29,1.28.56,1.91.81,2.78,1.12,5.85,2.63,6.69,5.5-.69-2.81.62-5.74.38-8.62-.18-2.08-1.26-4.04-2.83-5.41,1.62-.3,3.55-.78,5.76-1.56-4.41-3.1-3.52-2.19-5.68-3.87-2.8-2.19-3.82-2.89-6.84-4.77-.51-.32-1.05-.6-1.61-.85.57-.2,1.13-.4,1.68-.61,1.15-.43,2.36-.85,3.58-1.15ZM539.16,554.16c.1.13.21.26.31.38-.32,0-.63.06-.93.17.22-.17.43-.36.62-.56ZM519.14,554.75c-.04-.12-.09-.23-.14-.34.46-.04.87-.07,1.26-.11-.37.17-.75.32-1.13.45Z"/>
    </clipPath>
    <pattern id="Mini" x="0" y="0" width="61.08" height="34.44" patternTransform="translate(-10190.2013 -7789.7376) rotate(95.5564) scale(.1781)" patternUnits="userSpaceOnUse" viewBox="0 0 61.08 34.44">
      <g>
        <rect class="cls-1" width="61.08" height="34.44"/>
        <circle class="cls-1" cx="8.48" cy="34.06" r=".41"/>
        <g>
          <circle cx="1.98" cy="1.21" r=".41"/>
          <circle cx="5.24" cy="1.21" r=".41"/>
          <circle cx="8.5" cy="1.21" r=".41"/>
          <circle class="cls-1" cx="8.48" cy="-.38" r=".41"/>
          <circle cx="11.76" cy="1.21" r=".41"/>
          <circle cx="15.02" cy="1.21" r=".41"/>
          <circle cx="18.28" cy="1.21" r=".41"/>
          <circle cx="21.54" cy="1.21" r=".41"/>
          <circle cx="24.8" cy="1.21" r=".41"/>
          <circle cx="28.06" cy="1.21" r=".41"/>
          <circle cx="31.32" cy="1.21" r=".41"/>
          <circle cx="34.58" cy="1.21" r=".41"/>
          <circle cx="37.84" cy="1.21" r=".41"/>
          <circle cx="41.1" cy="1.21" r=".41"/>
          <circle cx="44.36" cy="1.21" r=".41"/>
          <circle cx="47.62" cy="1.21" r=".41"/>
          <circle cx="50.88" cy="1.21" r=".41"/>
          <circle cx="54.14" cy="1.21" r=".41"/>
          <circle cx="57.4" cy="1.21" r=".41"/>
          <circle cx="60.66" cy="1.21" r=".41"/>
          <circle cx=".41" cy="3.4" r=".41"/>
          <circle cx="3.67" cy="3.4" r=".41"/>
          <circle cx="6.93" cy="3.4" r=".41"/>
          <circle cx="10.2" cy="3.4" r=".41"/>
          <circle cx="13.46" cy="3.4" r=".41"/>
          <circle cx="16.72" cy="3.4" r=".41"/>
          <circle cx="19.98" cy="3.4" r=".41"/>
          <circle cx="23.24" cy="3.4" r=".41"/>
          <circle cx="26.5" cy="3.4" r=".41"/>
          <circle cx="29.76" cy="3.4" r=".41"/>
          <circle cx="33.02" cy="3.4" r=".41"/>
          <circle cx="36.28" cy="3.4" r=".41"/>
          <circle cx="39.54" cy="3.4" r=".41"/>
          <circle cx="42.8" cy="3.4" r=".41"/>
          <circle cx="46.06" cy="3.4" r=".41"/>
          <circle cx="49.32" cy="3.4" r=".41"/>
          <circle cx="52.58" cy="3.4" r=".41"/>
          <circle cx="55.84" cy="3.4" r=".41"/>
          <circle cx="59.1" cy="3.4" r=".41"/>
          <circle cx="1.98" cy="5.47" r=".41"/>
          <circle cx="5.24" cy="5.47" r=".41"/>
          <circle cx="8.5" cy="5.47" r=".41"/>
          <circle cx="11.76" cy="5.47" r=".41"/>
          <circle cx="15.02" cy="5.47" r=".41"/>
          <circle cx="18.28" cy="5.47" r=".41"/>
          <circle cx="21.54" cy="5.47" r=".41"/>
          <circle cx="24.8" cy="5.47" r=".41"/>
          <circle cx="28.06" cy="5.47" r=".41"/>
          <circle cx="31.32" cy="5.47" r=".41"/>
          <circle cx="34.58" cy="5.47" r=".41"/>
          <circle cx="37.84" cy="5.47" r=".41"/>
          <circle cx="41.1" cy="5.47" r=".41"/>
          <circle cx="44.36" cy="5.47" r=".41"/>
          <circle cx="47.62" cy="5.47" r=".41"/>
          <circle cx="50.88" cy="5.47" r=".41"/>
          <circle cx="54.14" cy="5.47" r=".41"/>
          <circle cx="57.4" cy="5.47" r=".41"/>
          <circle cx="60.66" cy="5.47" r=".41"/>
          <circle cx=".41" cy="7.66" r=".41"/>
          <circle cx="3.67" cy="7.66" r=".41"/>
          <circle cx="6.93" cy="7.66" r=".41"/>
          <circle cx="10.2" cy="7.66" r=".41"/>
          <circle cx="13.46" cy="7.66" r=".41"/>
          <circle cx="16.72" cy="7.66" r=".41"/>
          <circle cx="19.98" cy="7.66" r=".41"/>
          <circle cx="23.24" cy="7.66" r=".41"/>
          <circle cx="26.5" cy="7.66" r=".41"/>
          <circle cx="29.76" cy="7.66" r=".41"/>
          <circle cx="33.02" cy="7.66" r=".41"/>
          <circle cx="36.28" cy="7.66" r=".41"/>
          <circle cx="39.54" cy="7.66" r=".41"/>
          <circle cx="42.8" cy="7.66" r=".41"/>
          <circle cx="46.06" cy="7.66" r=".41"/>
          <circle cx="49.32" cy="7.66" r=".41"/>
          <circle cx="52.58" cy="7.66" r=".41"/>
          <circle cx="55.84" cy="7.66" r=".41"/>
          <circle cx="59.1" cy="7.66" r=".41"/>
          <circle cx="1.98" cy="9.74" r=".41"/>
          <circle cx="5.24" cy="9.74" r=".41"/>
          <circle cx="8.5" cy="9.74" r=".41"/>
          <circle cx="11.76" cy="9.74" r=".41"/>
          <circle cx="15.02" cy="9.74" r=".41"/>
          <circle cx="18.28" cy="9.74" r=".41"/>
          <circle cx="21.54" cy="9.74" r=".41"/>
          <circle cx="24.8" cy="9.74" r=".41"/>
          <circle cx="28.06" cy="9.74" r=".41"/>
          <circle cx="31.32" cy="9.74" r=".41"/>
          <circle cx="34.58" cy="9.74" r=".41"/>
          <circle cx="37.84" cy="9.74" r=".41"/>
          <circle cx="41.1" cy="9.74" r=".41"/>
          <circle cx="44.36" cy="9.74" r=".41"/>
          <circle cx="47.62" cy="9.74" r=".41"/>
          <circle cx="50.88" cy="9.74" r=".41"/>
          <circle cx="54.14" cy="9.74" r=".41"/>
          <circle cx="57.4" cy="9.74" r=".41"/>
          <circle cx="60.66" cy="9.74" r=".41"/>
          <circle cx=".41" cy="11.92" r=".41"/>
          <circle cx="3.67" cy="11.92" r=".41"/>
          <circle cx="6.93" cy="11.92" r=".41"/>
          <circle cx="10.2" cy="11.92" r=".41"/>
          <circle cx="13.46" cy="11.92" r=".41"/>
          <circle cx="16.72" cy="11.92" r=".41"/>
          <circle cx="19.98" cy="11.92" r=".41"/>
          <circle cx="23.24" cy="11.92" r=".41"/>
          <circle cx="26.5" cy="11.92" r=".41"/>
          <circle cx="29.76" cy="11.92" r=".41"/>
          <circle cx="33.02" cy="11.92" r=".41"/>
          <circle cx="36.28" cy="11.92" r=".41"/>
          <circle cx="39.54" cy="11.92" r=".41"/>
          <circle cx="42.8" cy="11.92" r=".41"/>
          <circle cx="46.06" cy="11.92" r=".41"/>
          <circle cx="49.32" cy="11.92" r=".41"/>
          <circle cx="52.58" cy="11.92" r=".41"/>
          <circle cx="55.84" cy="11.92" r=".41"/>
          <circle cx="59.1" cy="11.92" r=".41"/>
          <circle cx="1.98" cy="14" r=".41"/>
          <circle cx="5.24" cy="14" r=".41"/>
          <circle cx="8.5" cy="14" r=".41"/>
          <circle cx="11.76" cy="14" r=".41"/>
          <circle cx="15.02" cy="14" r=".41"/>
          <circle cx="18.28" cy="14" r=".41"/>
          <circle cx="21.54" cy="14" r=".41"/>
          <circle cx="24.8" cy="14" r=".41"/>
          <circle cx="28.06" cy="14" r=".41"/>
          <circle cx="31.32" cy="14" r=".41"/>
          <circle cx="34.58" cy="14" r=".41"/>
          <circle cx="37.84" cy="14" r=".41"/>
          <circle cx="41.1" cy="14" r=".41"/>
          <circle cx="44.36" cy="14" r=".41"/>
          <circle cx="47.62" cy="14" r=".41"/>
          <circle cx="50.88" cy="14" r=".41"/>
          <circle cx="54.14" cy="14" r=".41"/>
          <circle cx="57.4" cy="14" r=".41"/>
          <circle cx="60.66" cy="14" r=".41"/>
          <circle cx=".41" cy="16.19" r=".41"/>
          <circle cx="3.67" cy="16.19" r=".41"/>
          <circle cx="6.93" cy="16.19" r=".41"/>
          <circle cx="10.2" cy="16.19" r=".41"/>
          <circle cx="13.46" cy="16.19" r=".41"/>
          <circle cx="16.72" cy="16.19" r=".41"/>
          <circle cx="19.98" cy="16.19" r=".41"/>
          <circle cx="23.24" cy="16.19" r=".41"/>
          <circle cx="26.5" cy="16.19" r=".41"/>
          <circle cx="29.76" cy="16.19" r=".41"/>
          <circle cx="33.02" cy="16.19" r=".41"/>
          <circle cx="36.28" cy="16.19" r=".41"/>
          <circle cx="39.54" cy="16.19" r=".41"/>
          <circle cx="42.8" cy="16.19" r=".41"/>
          <circle cx="46.06" cy="16.19" r=".41"/>
          <circle cx="49.32" cy="16.19" r=".41"/>
          <circle cx="52.58" cy="16.19" r=".41"/>
          <circle cx="55.84" cy="16.19" r=".41"/>
          <circle cx="59.1" cy="16.19" r=".41"/>
          <circle cx="1.98" cy="18.26" r=".41"/>
          <circle cx="5.24" cy="18.26" r=".41"/>
          <circle cx="8.5" cy="18.26" r=".41"/>
          <circle cx="11.76" cy="18.26" r=".41"/>
          <circle cx="15.02" cy="18.26" r=".41"/>
          <circle cx="18.28" cy="18.26" r=".41"/>
          <circle cx="21.54" cy="18.26" r=".41"/>
          <circle cx="24.8" cy="18.26" r=".41"/>
          <circle cx="28.06" cy="18.26" r=".41"/>
          <circle cx="31.32" cy="18.26" r=".41"/>
          <circle cx="34.58" cy="18.26" r=".41"/>
          <circle cx="37.84" cy="18.26" r=".41"/>
          <circle cx="41.1" cy="18.26" r=".41"/>
          <circle cx="44.36" cy="18.26" r=".41"/>
          <circle cx="47.62" cy="18.26" r=".41"/>
          <circle cx="50.88" cy="18.26" r=".41"/>
          <circle cx="54.14" cy="18.26" r=".41"/>
          <circle cx="57.4" cy="18.26" r=".41"/>
          <circle cx="60.66" cy="18.26" r=".41"/>
          <circle cx=".41" cy="20.45" r=".41"/>
          <circle cx="3.67" cy="20.45" r=".41"/>
          <circle cx="6.93" cy="20.45" r=".41"/>
          <circle cx="10.2" cy="20.45" r=".41"/>
          <circle cx="13.46" cy="20.45" r=".41"/>
          <circle cx="16.72" cy="20.45" r=".41"/>
          <circle cx="19.98" cy="20.45" r=".41"/>
          <circle cx="23.24" cy="20.45" r=".41"/>
          <circle cx="26.5" cy="20.45" r=".41"/>
          <circle cx="29.76" cy="20.45" r=".41"/>
          <circle cx="33.02" cy="20.45" r=".41"/>
          <circle cx="36.28" cy="20.45" r=".41"/>
          <circle cx="39.54" cy="20.45" r=".41"/>
          <circle cx="42.8" cy="20.45" r=".41"/>
          <circle cx="46.06" cy="20.45" r=".41"/>
          <circle cx="49.32" cy="20.45" r=".41"/>
          <circle cx="52.58" cy="20.45" r=".41"/>
          <circle cx="55.84" cy="20.45" r=".41"/>
          <circle cx="59.1" cy="20.45" r=".41"/>
          <circle cx="1.98" cy="22.52" r=".41"/>
          <circle cx="5.24" cy="22.52" r=".41"/>
          <circle cx="8.5" cy="22.52" r=".41"/>
          <circle cx="11.76" cy="22.52" r=".41"/>
          <circle cx="15.02" cy="22.52" r=".41"/>
          <circle cx="18.28" cy="22.52" r=".41"/>
          <circle cx="21.54" cy="22.52" r=".41"/>
          <circle cx="24.8" cy="22.52" r=".41"/>
          <circle cx="28.06" cy="22.52" r=".41"/>
          <circle cx="31.32" cy="22.52" r=".41"/>
          <circle cx="34.58" cy="22.52" r=".41"/>
          <circle cx="37.84" cy="22.52" r=".41"/>
          <circle cx="41.1" cy="22.52" r=".41"/>
          <circle cx="44.36" cy="22.52" r=".41"/>
          <circle cx="47.62" cy="22.52" r=".41"/>
          <circle cx="50.88" cy="22.52" r=".41"/>
          <circle cx="54.14" cy="22.52" r=".41"/>
          <circle cx="57.4" cy="22.52" r=".41"/>
          <circle cx="60.66" cy="22.52" r=".41"/>
          <circle cx=".41" cy="24.71" r=".41"/>
          <circle cx="3.67" cy="24.71" r=".41"/>
          <circle cx="6.93" cy="24.71" r=".41"/>
          <circle cx="10.2" cy="24.71" r=".41"/>
          <circle cx="13.46" cy="24.71" r=".41"/>
          <circle cx="16.72" cy="24.71" r=".41"/>
          <circle cx="19.98" cy="24.71" r=".41"/>
          <circle cx="23.24" cy="24.71" r=".41"/>
          <circle cx="26.5" cy="24.71" r=".41"/>
          <circle cx="29.76" cy="24.71" r=".41"/>
          <circle cx="33.02" cy="24.71" r=".41"/>
          <circle cx="36.28" cy="24.71" r=".41"/>
          <circle cx="39.54" cy="24.71" r=".41"/>
          <circle cx="42.8" cy="24.71" r=".41"/>
          <circle cx="46.06" cy="24.71" r=".41"/>
          <circle cx="49.32" cy="24.71" r=".41"/>
          <circle cx="52.58" cy="24.71" r=".41"/>
          <circle cx="55.84" cy="24.71" r=".41"/>
          <circle cx="59.1" cy="24.71" r=".41"/>
          <circle cx="1.98" cy="26.78" r=".41"/>
          <circle cx="5.24" cy="26.78" r=".41"/>
          <circle cx="8.5" cy="26.78" r=".41"/>
          <circle cx="11.76" cy="26.78" r=".41"/>
          <circle cx="15.02" cy="26.78" r=".41"/>
          <circle cx="18.28" cy="26.78" r=".41"/>
          <circle cx="21.54" cy="26.78" r=".41"/>
          <circle cx="24.8" cy="26.78" r=".41"/>
          <circle cx="28.06" cy="26.78" r=".41"/>
          <circle cx="31.32" cy="26.78" r=".41"/>
          <circle cx="34.58" cy="26.78" r=".41"/>
          <circle cx="37.84" cy="26.78" r=".41"/>
          <circle cx="41.1" cy="26.78" r=".41"/>
          <circle cx="44.36" cy="26.78" r=".41"/>
          <circle cx="47.62" cy="26.78" r=".41"/>
          <circle cx="50.88" cy="26.78" r=".41"/>
          <circle cx="54.14" cy="26.78" r=".41"/>
          <circle cx="57.4" cy="26.78" r=".41"/>
          <circle cx="60.66" cy="26.78" r=".41"/>
          <circle cx=".41" cy="28.97" r=".41"/>
          <circle cx="3.67" cy="28.97" r=".41"/>
          <circle cx="6.93" cy="28.97" r=".41"/>
          <circle cx="10.2" cy="28.97" r=".41"/>
          <circle cx="13.46" cy="28.97" r=".41"/>
          <circle cx="16.72" cy="28.97" r=".41"/>
          <circle cx="19.98" cy="28.97" r=".41"/>
          <circle cx="23.24" cy="28.97" r=".41"/>
          <circle cx="26.5" cy="28.97" r=".41"/>
          <circle cx="29.76" cy="28.97" r=".41"/>
          <circle cx="33.02" cy="28.97" r=".41"/>
          <circle cx="36.28" cy="28.97" r=".41"/>
          <circle cx="39.54" cy="28.97" r=".41"/>
          <circle cx="42.8" cy="28.97" r=".41"/>
          <circle cx="46.06" cy="28.97" r=".41"/>
          <circle cx="49.32" cy="28.97" r=".41"/>
          <circle cx="52.58" cy="28.97" r=".41"/>
          <circle cx="55.84" cy="28.97" r=".41"/>
          <circle cx="59.1" cy="28.97" r=".41"/>
          <circle cx="1.98" cy="31.04" r=".41"/>
          <circle cx="5.24" cy="31.04" r=".41"/>
          <circle cx="8.5" cy="31.04" r=".41"/>
          <circle cx="11.76" cy="31.04" r=".41"/>
          <circle cx="15.02" cy="31.04" r=".41"/>
          <circle cx="18.28" cy="31.04" r=".41"/>
          <circle cx="21.54" cy="31.04" r=".41"/>
          <circle cx="24.8" cy="31.04" r=".41"/>
          <circle cx="28.06" cy="31.04" r=".41"/>
          <circle cx="31.32" cy="31.04" r=".41"/>
          <circle cx="34.58" cy="31.04" r=".41"/>
          <circle cx="37.84" cy="31.04" r=".41"/>
          <circle cx="41.1" cy="31.04" r=".41"/>
          <circle cx="44.36" cy="31.04" r=".41"/>
          <circle cx="47.62" cy="31.04" r=".41"/>
          <circle cx="50.88" cy="31.04" r=".41"/>
          <circle cx="54.14" cy="31.04" r=".41"/>
          <circle cx="57.4" cy="31.04" r=".41"/>
          <circle cx="60.66" cy="31.04" r=".41"/>
          <circle cx=".41" cy="33.23" r=".41"/>
          <circle cx="3.67" cy="33.23" r=".41"/>
          <circle cx="6.93" cy="33.23" r=".41"/>
          <circle cx="10.2" cy="33.23" r=".41"/>
          <circle cx="13.46" cy="33.23" r=".41"/>
          <circle cx="16.72" cy="33.23" r=".41"/>
          <circle cx="19.98" cy="33.23" r=".41"/>
          <circle cx="23.24" cy="33.23" r=".41"/>
          <circle cx="26.5" cy="33.23" r=".41"/>
          <circle cx="29.76" cy="33.23" r=".41"/>
          <circle cx="33.02" cy="33.23" r=".41"/>
          <circle cx="36.28" cy="33.23" r=".41"/>
          <circle cx="39.54" cy="33.23" r=".41"/>
          <circle cx="42.8" cy="33.23" r=".41"/>
          <circle cx="46.06" cy="33.23" r=".41"/>
          <circle cx="49.32" cy="33.23" r=".41"/>
          <circle cx="52.58" cy="33.23" r=".41"/>
          <circle cx="55.84" cy="33.23" r=".41"/>
          <circle cx="59.1" cy="33.23" r=".41"/>
        </g>
      </g>
    </pattern>
    <clipPath id="clippath-1">
      <rect class="cls-1" x="-384.86" y="1533.03" width="1242.99" height="780.96"/>
    </clipPath>
  </defs>
  <g>
    <circle class="cls-3" cx="540" cy="540" r="84"/>
    <g>
      <g>
        <path class="cls-6" d="M520.15,541.13c2.84-2.57,2.74-7.25.93-10.62-1.82-3.38-2.65-4.68-5.83-6.81-1.48-.99-4.45-2.84-9.31-4.35,1.68,5.12,1.52,3.86,2.24,6.5.93,3.43,1.33,4.6,2.64,7.91,1.31,3.31,4.01,6.3,7.52,6.89"/>
        <path d="M511.64,528.11c1.28,3.13,3.38,6,5.78,8.37.74.8,1.36,1.68,1.38,2.57.03.94,1.48.8,1.32-.13-.21-1.42-1.16-2.38-2-3.14-2.64-2.15-4.87-4.63-6.48-7.66h0Z"/>
      </g>
      <g>
        <path class="cls-6" d="M529.52,541.59c-1.1,3.67-5.37,5.59-9.2,5.4s-5.36-.38-8.65-2.35c-1.53-.91-4.48-2.8-7.93-6.54,5.35-.68,4.14-.29,6.83-.77,3.5-.63,4.73-.78,8.27-1.02,3.55-.24,7.42.92,9.45,3.83"/>
        <path class="cls-6" d="M514.1,539.5c3.38-.19,6.87.47,10.04,1.62,1.04.33,2.1.51,2.91.14.86-.37,1.35.99.45,1.25-1.37.42-2.65-.03-3.7-.46-3.07-1.46-6.28-2.41-9.7-2.56h0Z"/>
      </g>
      <g>
        <path class="cls-7" d="M521.3,564.41c-2.96,2.29-7.14,1.67-10.82,1.01s-7.93-1.11-10.72,1.37c2.59-2.51,3.16-6.48,5.33-9.36,2.46-3.26,7.04-4.74,10.95-3.54,2.13.66,3.99,2.1,5.25,3.93.61.88,1.08,1.89,1.56,2.84s.33,2.21-.36,3.02"/>
        <path d="M520.89,561.58c-3.85-.51-9.09-4.19-12.04-.1.44-1.01,1.42-1.74,2.48-2.09,3.26-.98,6.56.72,9.82.88.91.14.64,1.53-.26,1.32h0Z"/>
      </g>
      <g>
        <path class="cls-7" d="M557.98,568.56c1.53,2.57,4.83,3.34,7.77,3.93,2.94.58,6.24,1.49,7.6,4.16-1.2-2.63-.45-5.76-1.23-8.54-.88-3.15-3.86-5.6-7.12-5.84-1.78-.13-3.59.4-5.07,1.39-.71.48-1.36,1.09-2,1.66s-.9,1.55-.62,2.35"/>
        <path d="M559.11,566.57c3.02.75,8.01-.46,9.01,3.45-.03-.89-.55-1.71-1.24-2.29-2.14-1.69-5.1-1.39-7.58-2.23-.72-.16-.93.95-.19,1.06h0Z"/>
      </g>
      <g>
        <path d="M521.54,564.88c-1.16,3.55-4.97,5.39-8.39,6.91-3.42,1.52-7.19,3.53-8.11,7.15.74-3.53-1.02-7.14-.84-10.74.21-4.08,3.17-7.88,7.08-9.07,2.14-.65,4.48-.5,6.55.3,1,.39,1.96.96,2.89,1.47.93.52,1.52,1.64,1.4,2.7"/>
        <path class="cls-6" d="M519.61,562.76c-3.48,1.73-9.88,1.63-10.02,6.67-.2-1.09.2-2.24.88-3.12,2.15-2.64,5.83-3.08,8.62-4.79.83-.39,1.39.91.52,1.24h0Z"/>
      </g>
      <g>
        <path class="cls-6" d="M520,556.99c-.41-3.81-4.26-6.48-8.06-6.99-3.8-.51-5.34-.6-8.94.72-1.68.62-4.91,1.94-8.99,4.98,5.13,1.64,4.01,1.04,6.57,2.01,3.33,1.26,4.5,1.63,7.95,2.51,3.44.88,7.46.45,10-2.04"/>
        <path d="M504.47,556.23c3.28.81,6.84.79,10.17.24,1.08-.13,2.16-.11,2.89.39.78.52,1.51-.73.67-1.15-1.27-.66-2.61-.46-3.72-.22-3.29.88-6.61,1.22-10,.75h0Z"/>
      </g>
      <g>
        <path d="M549.9,558.13c-2.51,2.9-1.85,7.53.37,10.66s3.2,4.32,6.62,6.05c1.59.81,4.76,2.28,9.77,3.2-2.29-4.88-1.97-3.65-3.01-6.18-1.34-3.29-1.88-4.41-3.57-7.53-1.7-3.13-4.75-5.77-8.3-5.93"/>
        <path class="cls-6" d="M559.92,570.02c-1.65-2.95-4.08-5.55-6.75-7.61-.83-.7-1.55-1.5-1.68-2.38-.15-.93-1.56-.61-1.3.29.38,1.38,1.44,2.23,2.37,2.88,2.88,1.81,5.39,4.01,7.36,6.82h0Z"/>
      </g>
      <g>
        <path d="M538.72,551.2c-3.81-.39-7.22,2.82-8.51,6.43s-1.7,5.1-1.15,8.89c.26,1.77.87,5.21,3,9.83,2.68-4.68,1.85-3.71,3.33-6.01,1.92-2.99,2.53-4.07,4.11-7.25,1.58-3.19,2-7.2.08-10.2"/>
        <path class="cls-6" d="M534.75,566.23c1.47-3.04,2.2-6.52,2.35-9.9.09-1.09.34-2.14.98-2.74.68-.65-.4-1.63-.99-.89-.91,1.1-.99,2.46-.99,3.59.17,3.4-.18,6.72-1.35,9.94h0Z"/>
      </g>
      <g>
        <path d="M523.58,538.27c.43-3.81-2.75-7.25-6.35-8.57-3.6-1.32-5.08-1.75-8.88-1.23-1.77.24-5.22.82-9.86,2.91,4.65,2.72,3.69,1.88,5.98,3.39,2.97,1.95,4.04,2.57,7.22,4.18s7.18,2.06,10.2.18"/>
        <path class="cls-6" d="M508.58,534.15c3.03,1.5,6.5,2.26,9.87,2.44,1.08.1,2.13.36,2.73,1.01.65.68,1.64-.38.9-.98-1.1-.92-2.45-1.02-3.58-1.03-3.4.14-6.72-.24-9.93-1.44h0Z"/>
      </g>
      <g>
        <path d="M530.77,537.96c-3.76-.74-6.09-4.8-6.27-8.63-.18-3.83-.14-5.37,1.49-8.84.76-1.62,2.35-4.73,5.74-8.53,1.2,5.25.69,4.09,1.43,6.72.97,3.42,1.23,4.63,1.82,8.14.58,3.51-.19,7.47-2.89,9.78"/>
        <path class="cls-6" d="M531.35,522.41c.52,3.34.2,6.88-.64,10.15-.23,1.07-.3,2.14.14,2.91.46.82-.86,1.44-1.2.57-.55-1.32-.23-2.64.1-3.72,1.16-3.2,1.78-6.48,1.6-9.9h0Z"/>
      </g>
      <g>
        <path d="M544.2,546.8c-.87-3.73,1.88-7.52,5.3-9.26,3.42-1.74,4.84-2.33,8.68-2.27,1.78.03,5.28.21,10.13,1.74-4.3,3.24-3.45,2.3-5.54,4.06-2.73,2.29-3.72,3.02-6.68,4.99s-6.89,2.89-10.11,1.37"/>
        <path class="cls-6" d="M558.62,540.96c-2.83,1.84-6.19,3-9.52,3.58-1.06.23-2.08.6-2.6,1.32-.56.75-1.67-.19-1.01-.87.98-1.04,2.31-1.3,3.44-1.44,3.39-.26,6.64-1.03,9.69-2.6h0Z"/>
      </g>
      <g>
        <path class="cls-7" d="M551,539.47c1.16-3.65,5.45-5.51,9.28-5.26,3.83.25,5.35.47,8.62,2.48,1.52.94,4.43,2.87,7.83,6.66-5.36.6-4.14.22-6.84.67-3.51.58-4.74.7-8.29.89-3.55.19-7.4-1.03-9.4-3.98"/>
        <path class="cls-6" d="M566.38,541.8c-3.38.14-6.86-.58-10.01-1.78-1.03-.34-2.09-.54-2.91-.19-.87.36-1.34-1.01-.43-1.26,1.37-.4,2.65.07,3.69.52,3.05,1.51,6.24,2.5,9.66,2.71h0Z"/>
      </g>
      <g>
        <path d="M541.31,540.31c.04,3.83-3.47,6.93-7.18,7.88s-5.23,1.22-8.96.33c-1.74-.42-5.11-1.35-9.52-3.9,4.9-2.23,3.86-1.5,6.29-2.76,3.16-1.64,4.28-2.14,7.6-3.42,3.32-1.28,7.36-1.32,10.17.86"/>
        <path class="cls-6" d="M525.97,542.88c3.17-1.18,6.7-1.59,10.07-1.43,1.09,0,2.16-.14,2.82-.73.71-.61,1.59.55.8,1.06-1.18.81-2.54.76-3.67.66-3.37-.48-6.71-.44-10.02.43h0Z"/>
      </g>
      <g>
        <path d="M559.19,547.25c1.31-3.6,5.68-5.28,9.49-4.87,3.81.41,5.33.69,8.51,2.83,1.48,1,4.31,3.05,7.55,6.98-5.38.37-4.14.05-6.86.38-3.53.43-4.76.51-8.32.54-3.56.04-7.35-1.34-9.22-4.36"/>
        <path class="cls-6" d="M574.46,550.21c-3.38,0-6.83-.86-9.93-2.19-1.02-.39-2.07-.62-2.9-.31-.88.32-1.3-1.07-.37-1.28,1.39-.34,2.65.18,3.66.67,2.99,1.63,6.13,2.76,9.54,3.11h0Z"/>
      </g>
      <g>
        <path class="cls-6" d="M531.44,559.08c-3.52-1.53-7.74.5-10.06,3.55-2.32,3.05-3.16,4.34-3.79,8.13-.29,1.76-.75,5.23-.12,10.28,3.97-3.65,2.89-2.97,4.99-4.72,2.74-2.27,3.64-3.11,6.11-5.67s4.08-6.26,3.17-9.7"/>
        <path d="M523.09,572.21c2.32-2.46,4.07-5.55,5.24-8.72.42-1.01.97-1.93,1.77-2.32.84-.42.11-1.68-.67-1.15-1.2.78-1.69,2.04-2.03,3.12-.87,3.29-2.21,6.35-4.3,9.06h0Z"/>
      </g>
      <g>
        <path d="M540.71,535.64c3.81.46,7.28-2.67,8.64-6.26,1.36-3.58,1.8-5.06,1.33-8.87-.22-1.77-.77-5.22-2.81-9.89-2.77,4.62-1.92,3.67-3.45,5.95-1.98,2.95-2.61,4.02-4.25,7.17s-2.14,7.16-.28,10.2"/>
        <path class="cls-6" d="M544.98,520.69c-1.53,3.02-2.32,6.48-2.54,9.85-.12,1.08-.38,2.13-1.04,2.72-.69.64.37,1.64.97.91.93-1.09,1.04-2.44,1.06-3.57-.1-3.4.31-6.72,1.55-9.91h0Z"/>
      </g>
      <g>
        <path class="cls-6" d="M548.03,556.44c-.03,3.83,3.48,6.93,7.2,7.87,3.71.95,5.24,1.21,8.96.31,1.74-.42,5.1-1.36,9.51-3.91-4.91-2.22-3.87-1.49-6.3-2.75-3.16-1.63-4.29-2.13-7.61-3.41-3.32-1.28-7.36-1.31-10.16.87"/>
        <path d="M563.38,558.99c-3.17-1.18-6.7-1.57-10.07-1.41-1.09,0-2.16-.14-2.82-.72-.71-.61-1.59.55-.8,1.07,1.18.8,2.54.76,3.67.65,3.37-.49,6.71-.45,10.02.41h0Z"/>
      </g>
      <g class="cls-9">
        <path class="cls-2" d="M525.48,591.51c-9.33.61-19.58.95-26.98-4.77-5.3-4.09-8.1-10.57-10.43-16.85-4.51-12.17-8.01-25.96-2.76-37.83,2.55-5.76,6.95-10.51,11.73-14.61,9.52-8.18,20.93-14.3,33.2-17,12.35-2.72,25.45-1.91,37.37,2.3,15.61,5.52,29.37,17.42,34.83,33.05,5.46,15.63,1.37,34.76-11.52,45.14-7.98,6.43-18.31,9.11-28.42,10.72-12.53,2-25.28,2.61-37.95,1.83"/>
      </g>
      <g>
        <path class="cls-6" d="M549.14,534.07c1.42,3.56,5.84,5.1,9.64,4.57s5.31-.85,8.42-3.09c1.45-1.04,4.21-3.18,7.33-7.21-5.39-.21-4.14.08-6.87-.17-3.54-.32-4.78-.36-8.33-.29-3.56.07-7.31,1.56-9.08,4.65"/>
        <path d="M564.31,530.64c-3.38.11-6.8,1.07-9.86,2.5-1.01.42-2.05.69-2.88.4-.89-.3-1.26,1.11-.33,1.29,1.4.3,2.64-.26,3.64-.78,2.93-1.73,6.04-2.95,9.44-3.4h0Z"/>
      </g>
      <g>
        <path class="cls-6" d="M539.57,554.79c-3.65,1.16-5.5,5.46-5.25,9.29.25,3.82.47,5.35,2.49,8.61.94,1.52,2.88,4.43,6.67,7.82.59-5.36.22-4.14.66-6.84.57-3.51.7-4.74.88-8.29.18-3.55-1.04-7.4-3.99-9.39"/>
        <path d="M541.91,570.17c.14-3.38-.58-6.86-1.79-10.01-.35-1.03-.54-2.09-.19-2.91.36-.87-1.02-1.34-1.26-.43-.4,1.38.07,2.65.52,3.69,1.51,3.05,2.51,6.24,2.72,9.66h0Z"/>
      </g>
      <g>
        <path class="cls-7" d="M522.83,552.4c-3.28,1.79-7.31.51-10.84-.73s-7.65-2.36-10.8-.36c2.96-2.07,4.15-5.89,6.76-8.39,2.95-2.83,7.71-3.56,11.37-1.75,2,.99,3.6,2.71,4.56,4.71.46.97.77,2.04,1.09,3.05s-.02,2.23-.83,2.92"/>
        <path d="M522.88,549.54c-3.72-1.12-8.31-5.59-11.87-2.02.6-.93,1.68-1.49,2.78-1.67,3.38-.45,6.36,1.75,9.56,2.43.87.29.39,1.61-.47,1.26h0Z"/>
      </g>
      <g>
        <path class="cls-7" d="M543.47,554.74c3.63.88,5.77,4.53,7.54,7.82,1.78,3.29,4.08,6.89,7.76,7.52-3.58-.46-7.03,1.58-10.64,1.68-4.08.11-8.1-2.54-9.6-6.34-.82-2.08-.85-4.42-.21-6.55.31-1.03.8-2.03,1.24-2.99s1.52-1.64,2.58-1.61"/>
        <path d="M541.52,556.83c2,3.33,2.4,9.72,7.44,9.47-1.07.29-2.25-.02-3.18-.63-2.8-1.93-3.53-5.57-5.45-8.22-.46-.8.8-1.46,1.19-.62h0Z"/>
      </g>
      <g>
        <path class="cls-7" d="M521.16,528.63c-2.7-2.58-2.73-6.81-2.63-10.54.1-3.74-.09-8.01-2.96-10.4,2.87,2.19,6.88,2.15,10.06,3.87,3.59,1.94,5.74,6.25,5.14,10.29-.33,2.21-1.48,4.26-3.09,5.78-.78.74-1.71,1.36-2.57,1.97s-2.14.66-3.04.1"/>
        <path d="M523.9,527.8c-.07-3.88,2.78-9.62-1.71-11.92,1.07.28,1.93,1.14,2.44,2.14,1.46,3.08.27,6.59.61,9.84,0,.92-1.42.86-1.34-.06h0Z"/>
      </g>
      <g>
        <path class="cls-7" d="M555.62,531.49c2.5-2.78,2.2-7,1.81-10.71-.39-3.72-.53-7.99,2.15-10.59-2.7,2.4-6.7,2.67-9.73,4.63-3.43,2.21-5.25,6.67-4.33,10.65.5,2.18,1.8,4.13,3.53,5.53.84.68,1.81,1.22,2.72,1.77.91.55,2.18.49,3.04-.13"/>
        <path d="M552.83,530.87c-.23-3.88-3.51-9.38.79-12.02-1.04.37-1.84,1.29-2.27,2.32-1.22,3.18.23,6.59.15,9.86.08.92,1.48.75,1.33-.16h0Z"/>
      </g>
      <g>
        <path class="cls-7" d="M549.14,556.05c3.58,1.07,7.26-1,10.46-2.94,3.19-1.94,7-3.89,10.5-2.58-3.32-1.41-5.27-4.91-8.34-6.82-3.47-2.16-8.27-1.89-11.48.63-1.76,1.38-2.97,3.39-3.49,5.55-.25,1.04-.33,2.16-.44,3.21s.48,2.18,1.42,2.69"/>
        <path d="M548.5,553.26c3.41-1.86,6.98-7.18,11.2-4.42-.78-.79-1.95-1.11-3.07-1.06-3.4.26-5.86,3.03-8.85,4.34-.8.46-.05,1.66.72,1.14h0Z"/>
      </g>
      <g>
        <path class="cls-6" d="M535.47,539.11c.02-3.74-3.01-6.68-5.78-9.2s-5.71-5.61-5.44-9.34c-.42,3.59-3.22,6.45-4.19,9.93-1.09,3.94.52,8.47,3.85,10.84,1.82,1.29,4.09,1.89,6.31,1.78,1.07-.05,2.16-.29,3.2-.49s1.96-1.08,2.18-2.12"/>
        <path d="M532.98,540.51c-2.75-2.74-8.86-4.67-7.41-9.49-.54.97-.52,2.19-.15,3.24,1.21,3.19,4.56,4.77,6.67,7.26.67.63,1.6-.43.89-1.01h0Z"/>
      </g>
      <g>
        <path class="cls-6" d="M535.74,545.74c.16,3.73,3.33,6.53,6.21,8.92,2.88,2.38,5.97,5.34,5.87,9.07.25-3.6,2.91-6.59,3.71-10.11.9-3.98-.92-8.44-4.36-10.64-1.88-1.21-4.17-1.69-6.39-1.48-1.07.1-2.15.39-3.18.64-1.03.24-1.9,1.17-2.08,2.22"/>
        <path d="M538.16,544.22c2.88,2.61,9.07,4.24,7.85,9.13.49-.99.41-2.21,0-3.24-1.35-3.12-4.78-4.55-7.01-6.94-.7-.6-1.58.5-.84,1.05h0Z"/>
      </g>
      <g>
        <path class="cls-6" d="M532.33,529.09c-1.8-3.28-.54-7.31.69-10.84,1.23-3.53,2.34-7.66.33-10.81,2.08,2.95,5.91,4.13,8.41,6.73,2.83,2.94,3.58,7.7,1.78,11.36-.98,2-2.7,3.61-4.7,4.57-.97.47-2.04.77-3.05,1.1s-2.23-.02-2.93-.82"/>
        <path d="M535.19,529.13c1.11-3.72,5.56-8.33,1.98-11.88.93.59,1.5,1.68,1.68,2.78.46,3.37-1.74,6.36-2.4,9.56-.28.88-1.61.39-1.26-.46h0Z"/>
      </g>
      <g>
        <path class="cls-6" d="M544.93,543.77c3.72-.36,6.35-3.67,8.57-6.68,2.22-3,5.01-6.24,8.75-6.35-3.61-.05-6.74-2.56-10.3-3.16-4.03-.69-8.38,1.37-10.39,4.92-1.1,1.94-1.46,4.26-1.14,6.46.16,1.06.51,2.12.81,3.14.3,1.02,1.27,1.84,2.33,1.95"/>
        <path d="M543.29,541.43c2.45-3.01,3.75-9.29,8.7-8.33-1.02-.44-2.23-.29-3.24.18-3.05,1.52-4.28,5.02-6.55,7.37-.56.73.58,1.55,1.09.78h0Z"/>
      </g>
      <g>
        <path class="cls-6" d="M535.5,550.11c-3.72-.35-6.93,2.41-9.68,4.93-2.75,2.53-6.1,5.18-9.79,4.58,3.54.73,6.14,3.79,9.51,5.06,3.82,1.44,8.49.24,11.14-2.87,1.45-1.7,2.24-3.9,2.34-6.13.04-1.07-.1-2.18-.2-3.23s-.9-2.04-1.92-2.36"/>
        <path d="M536.67,552.72c-2.98,2.49-5.44,8.41-10.12,6.53.92.62,2.13.71,3.21.44,3.28-.92,5.15-4.12,7.83-6,.69-.61-.28-1.64-.92-.97h0Z"/>
      </g>
      <g>
        <path class="cls-7" d="M537.21,546.98c-2.57-2.85-7.24-2.76-10.62-.94-3.38,1.81-4.68,2.64-6.82,5.82-1,1.48-2.85,4.45-4.37,9.31,5.12-1.67,3.86-1.51,6.5-2.22,3.43-.93,4.6-1.32,7.91-2.62s6.31-4,6.9-7.51"/>
        <path d="M524.17,555.47c3.13-1.27,6.01-3.36,8.38-5.76.8-.74,1.68-1.36,2.57-1.37.94-.03.8-1.48-.13-1.32-1.42.21-2.39,1.16-3.14,2-2.15,2.64-4.64,4.86-7.67,6.47h0Z"/>
      </g>
      <g>
        <path class="cls-7" d="M537.99,548.19c3.56-1.42,5.1-5.84,4.58-9.63s-.85-5.31-3.09-8.42c-1.04-1.45-3.18-4.21-7.21-7.33-.21,5.39.08,4.14-.17,6.87-.32,3.54-.36,4.78-.29,8.33.07,3.56,1.56,7.31,4.64,9.08"/>
        <path d="M534.55,533.02c.1,3.38,1.07,6.8,2.5,9.86.42,1.01.69,2.05.4,2.89-.3.89,1.11,1.26,1.29.34.3-1.4-.26-2.64-.78-3.64-1.72-2.94-2.95-6.04-3.4-9.44h0Z"/>
      </g>
      <g>
        <path d="M537.17,541.1c3.95,1.04,4.53,1.96,5.65,5.84.74,2.56.56,3.26-1.47,6.8-.97,1.69-2.91,2.84-5.6,4.53-.15-3.2-5.79-3.81-5.67-7.54s-.46-6.09,2.39-8.51c1.32-1.12,2.97-1.11,4.7-1.12Z"/>
        <path class="cls-6" d="M535.6,543.85c-.26,3.34,3.87,8.3.26,10.04.86-.41,1.82-1.42,2.02-2.36.5-2.34-1.57-4.87-1.12-7.66.04-.79-1.18-.81-1.16-.02h0Z"/>
      </g>
    </g>
  </g>
  <g class="cls-8">
    <g class="cls-5">
      <path class="cls-4" d="M1357.96,1439.93c-40.57,45.13-77.07,94.55-124.25,132.73-66.83,54.08-149.52,81.62-226.42,117.63-72.21,33.81-135.67,107.12-177.61,174.59-40.11,64.54-61.32,137.49-61.33,209.15-14.15-5.94-28.66-10.81-43.38-14.51-28.47-7.16-59.32-10.74-94.3-10.94-33.42-.19-67.12,2.84-92.75,5.5-26.28,2.73-52.9,5.99-78.65,9.14-70.6,8.64-156,30.01-217.08-16.49-57.17-43.52-92.72-111.19-107.21-178.92-6.34-29.62-15.28-55.39-26.58-76.58-14.6-27.37-33.6-48.18-56.48-61.84-20.69-12.36-44.85-19.28-73.84-21.17-24.39-1.59-49.45.48-73.69,2.48-39.19,3.23-89.76,22.65-107.89-5.6-28.34-44.17-11.27-118.35-12.65-134.02-4.41-50.04.73-100.8,14.07-149.18,27.13-98.42,88.74-188.19,175.07-243.69,45.74-29.4,98.1-50.58,134.8-90.7,30.99-33.88,47.77-78.11,62.4-121.63,14.63-43.52,28.18-88.3,54.41-125.98,43.91-63.1,106.93-57.6,168.26-88.83,22.41-11.41,45.57-22.68,67.97-33.58,42.25-20.56,85.93-41.82,127.51-65.39,22.57-12.79,42.67-25.2,61.45-37.92,21.21-14.37,40.2-28.76,58.06-44,24.22-20.67,46.31-43.71,65.67-68.47,20.21-25.85,37.05-53.11,50.06-81.04,13.88-29.77,23.28-60.07,27.95-90.06,2.78-17.88,13.4-81.4-3.69-94.29-11.28-8.51-24.08-.26-34.89,10.66-8.19,8.27-15.24,18.08-19.63,23.31-41.41,49.27-96.72,84.92-136.51,135.37-35.83,45.43-53.36,102.21-79.57,153.79-45.02,88.6-119.69,112.29-203.13,154.78-45.38,23.11-88.92,47.5-129.4,72.5-43.38,26.79-84.6,55.11-122.51,84.16-40.32,30.91-78.11,63.57-112.3,97.1-36.16,35.45-69.37,72.89-98.7,111.28-30.51,39.94-57.73,82.49-80.9,126.47-23.71,45-43.24,91.64-58.05,138.61-15.33,48.61-25.69,97.89-30.8,146.48-5.33,50.68-5,101.14,1,149.95,5.51,44.91,26.58,86.26,34.05,130.79,6.9,41.16-3.94,81.56,4.97,123.75,10.78,51.04,44.58,60.17,87.83,79.32,60.24,26.67,109.3,70.14,168.38,98.71,56.02,27.08,116.24,42.65,178.99,46.26,29.89,1.72,61.29,5.3,91.67,1.86,29.51-3.34,59.33-6.56,89.17-9.3,62.59-5.74,125.52-11.69,188.42-7.74,26.62,1.67,53.14,5.13,79.18,10.91,64.16,14.26,126.8,45.8,165.78,98.72,55.75,75.69,53.04,182.25,17.21,269.16-66.75,161.89-218.67,255.91-315.71,396.2-40.15,58.04-68.22,114.35-85.82,172.14-16.36,53.74-23.74,109.32-22.56,169.9,1.01,52.1,8.26,108.99,22.82,179.01,4.77,22.95,16.12,51.37,33.75,84.47,15.85,29.76,36.32,62.58,60.84,97.56,22.93,32.7,49.13,66.75,75.77,98.45,19.74,23.49,51.05,72.92,80.32,82.48,7.63,2.49,17.69,2.7,28.19,2.09,14.22-.83,29.27-3.15,40.25-3.35,22.87-.4,45.73-.81,68.59-1.21-9.45-.19-37.58-37.35-44.97-44.7-16.14-16.05-32.28-32.09-48.42-48.14-29.57-29.4-59.68-58.35-88.3-88.69-64.47-68.35-114.74-149.87-147.8-237.78-16.75-44.56-29.1-90.79-36.64-137.8-7.69-47.97,3.55-93.76,17.71-140.26,16.33-53.63,42.58-106.19,80.27-160.66,19.49-28.17,42.53-57.44,68.48-86.99,26.38-30.05,56.84-61.6,90.53-93.79,18.07-17.27,37.74-34.22,56.75-50.61,49.16-42.37,100-86.19,135.06-144.29,25.48-42.21,40.83-91.03,44.41-141.16,1.78-24.89.65-49.87-3.35-74.26-4.08-24.9-11.15-49.07-21-71.85-33.54-77.52-99.97-128.12-106.22-217.79-6.27-90,43.32-167.86,110.21-223.86,30.59-25.61,64.3-45.13,100.19-58.01,35.57-12.76,72.53-19.69,111.66-27.02,38.12-7.14,77.54-14.53,115.41-27.81,36.06-12.65,70.41-31.01,102.08-54.58,30.81-22.92,58.43-50.25,82.08-81.22,23.66-30.98,42.75-64.81,56.75-100.57,5.28-13.47,9.78-27.1,13.51-40.84,6.44-23.76,10.56-47.86,12.27-72.01-72.34-5.15-131.85,53.16-177.25,103.66ZM53.87,1784.29c4.93,5.57,9.56,11.92,13.82,18.97-.58,2.63-.65,5.71-1.25,7.85-.69,2.46-1.7,5.42-3.5,7.3-5.12,5.33-13.77,1.99-20.4,1.54-8.64-.59-17.3-.95-25.91-1.82-9.03-.91-18.73-1.87-26.88-6.2-9.6-5.1-11.42-12.03-13.4-22.36-1.46-7.64-2.97-15.17-1.94-22.99l.02-.18c1.3-9.84,10.64-16.59,20.38-14.66,12.87,2.56,25.08,6.67,35.91,13.14,8.4,5.02,16.19,11.55,23.15,19.41ZM-174.83,1814.28c-4.33-17.89,5.74-32.88,20.9-43.97,17.99-13.16,43.16-20.84,59.92-21.36,5.06-.16,10.29-.36,15.63-.54,2.38.66,4.68,1.47,6.85,2.49,25.33,11.8-2.59,51.57-7.36,68.27-3.55,12.42-6.39,25.02-10.34,37.32-2.5,7.77-2.71,20.71-9.39,26.43-1.06.91-2.57,1.53-4.32,1.98-7.8,2.02-16.11-.16-22.15-5.5-22.82-20.17-44.66-44.12-49.75-65.12ZM8.85,1954.89c-18.37-4.68-36.27-11.21-53.32-19.51-9.88-4.94-14.14-12.85-18.01-19.46-5.51-9.43-6.76-19.5-5.66-30.04.94-9.04,3.56-15.7,8.14-23.62,1.58-2.73,2.47-5.94,5.28-7.45,11.44-6.16,25.35,6.94,33.05,13.54,10.67,9.15,13.88,13.77,26.74,17.07,16.39,4.2,30.27.6,44.67,8.25,11.49,6.1,20.23,15.98,28.75,25.57,4.2,4.73,8.46,9.33,12.96,13.74,4.67,4.57,4.35,9.84,1.55,15.54-2.67,5.42-6.46,12.3-12.63,14.26-6.74,2.14-15.7,1.83-22.72,1.47-16.6-.86-32.77-5.27-48.8-9.35Z"/>
    </g>
  </g>
</svg>